<?xml version="1.0" encoding="UTF-8"?>
<svg width="80px" height="63px" viewBox="0 0 80 63" version="1.1" xmlns="http://www.w3.org/2000/svg" xmlns:xlink="http://www.w3.org/1999/xlink">
    <!-- Generator: Sketch 64 (93537) - https://sketch.com -->
    <title>Group 3</title>
    <desc>Created with Sketch.</desc>
    <g id="Styleguide" stroke="none" stroke-width="1" fill="none" fill-rule="evenodd">
        <g id="Blockchain" transform="translate(-140.000000, -1166.000000)">
            <g id="Group-3" transform="translate(140.000000, 1166.000000)">
                <ellipse id="Oval-Copy-3" fill="#36C2E1" opacity="0.200000003" cx="30.8" cy="32.147943" rx="30.8" ry="30.7025316"></ellipse>
                <g id="bitcoin-(4)" transform="translate(16.800000, 0.000000)" fill="#000000" fill-rule="nonzero">
                    <path d="M54.56,18.1922468 L56.64,18.1922468 C56.64,15.9020274 58.50251,14.0454114 60.8,14.0454114 L60.8,11.9719937 C58.50251,11.9719937 56.64,10.1153777 56.64,7.82515823 L54.56,7.82515823 C54.56,10.1153777 52.69749,11.9719937 50.4,11.9719937 L50.4,14.0454114 C52.69749,14.0454114 54.56,15.9020274 54.56,18.1922468 Z M55.6,11.2597747 C56.06254,11.9530737 56.65898,12.5476263 57.35448,13.0087025 C56.65898,13.4697788 56.06254,14.0643313 55.6,14.7576304 L55.59064,14.7451899 C55.132,14.0619987 54.54336,13.4752215 53.858,13.0180329 L53.84552,13.0087025 C54.54102,12.5476263 55.13746,11.9530737 55.6,11.2597747 Z" id="Shape"></path>
                    <path d="M7.84,51.6859177 L5.76,51.6859177 C5.76,53.9761372 3.89749,55.8327532 1.6,55.8327532 L1.6,57.9061709 C3.89749,57.9061709 5.76,59.7627869 5.76,62.0530063 L7.84,62.0530063 C7.84,59.7627869 9.70251,57.9061709 12,57.9061709 L12,55.8327532 C9.70251,55.8327532 7.84,53.9761372 7.84,51.6859177 Z M6.8,58.6183899 L6.79064,58.6059494 C6.332,57.9227582 5.74336,57.335981 5.058,56.8787924 L5.04552,56.869462 C5.74102,56.4083858 6.33746,55.8138332 6.8,55.1205342 C7.26254,55.8138332 7.85898,56.4083858 8.55448,56.869462 C7.85898,57.3305383 7.26254,57.9250908 6.8,58.6183899 Z" id="Shape"></path>
                    <path d="M28.16,11.0150316 L30.24,11.0150316 C30.24,8.72481218 32.10251,6.8681962 34.4,6.8681962 L34.4,4.79477848 C32.10251,4.79477848 30.24,2.9381625 30.24,0.647943038 L28.16,0.647943038 C28.16,2.9381625 26.29749,4.79477848 24,4.79477848 L24,6.8681962 C26.29749,6.8681962 28.16,8.72481218 28.16,11.0150316 Z M29.2,4.08255949 C29.66254,4.77585854 30.25898,5.37041108 30.95448,5.83148734 C30.25898,6.29256361 29.66254,6.88711614 29.2,7.58041519 L29.19064,7.56797468 C28.732,6.88478354 28.14336,6.29800633 27.458,5.84081772 L27.44552,5.83148734 C28.14102,5.37041108 28.73746,4.77585854 29.2,4.08255949 Z" id="Shape"></path>
                    <path d="M52.8,38.6606013 C52.7970923,37.8733671 52.4891538,37.1152405 51.936,36.534019 C52.4891538,35.9527975 52.7970923,35.1946709 52.8,34.4074367 L52.8,32.2808544 C52.8,30.5191139 51.3122308,29.090981 49.4769231,29.090981 L47.2615385,29.090981 L47.2615385,26.9643987 L45.0461538,26.9643987 L45.0461538,29.090981 L42.8307692,29.090981 L42.8307692,26.9643987 L40.6153846,26.9643987 L40.6153846,29.090981 L38.4,29.090981 L38.4,31.2175633 L39.5076923,31.2175633 L39.5076923,41.8504747 L38.4,41.8504747 L38.4,43.977057 L40.6153846,43.977057 L40.6153846,46.1036392 L42.8307692,46.1036392 L42.8307692,43.977057 L45.0461538,43.977057 L45.0461538,46.1036392 L47.2615385,46.1036392 L47.2615385,43.977057 L49.4769231,43.977057 C51.3122308,43.977057 52.8,42.5489241 52.8,40.7871835 L52.8,38.6606013 Z M50.5846154,40.7871835 C50.5846154,41.3743861 50.0886462,41.8504747 49.4769231,41.8504747 L41.7230769,41.8504747 L41.7230769,37.5973101 L49.4769231,37.5973101 C50.0886462,37.5973101 50.5846154,38.0733987 50.5846154,38.6606013 L50.5846154,40.7871835 Z M50.5846154,34.4074367 C50.5846154,34.9946392 50.0886462,35.4707278 49.4769231,35.4707278 L41.7230769,35.4707278 L41.7230769,31.2175633 L49.4769231,31.2175633 C50.0886462,31.2175633 50.5846154,31.6936519 50.5846154,32.2808544 L50.5846154,34.4074367 Z" id="Shape"></path>
                    <path d="M44.0923077,17.3947785 L14.3692308,17.3947785 L14.3692308,19.477057 L35.3781385,19.477057 C32.4914173,20.9330902 30.0275865,23.0821317 28.2159385,25.7238924 L14.3692308,25.7238924 L14.3692308,27.8061709 L27.0015385,27.8061709 C25.8464519,30.0784573 25.1787442,32.5588414 25.0398154,35.0941456 L8,35.0941456 L8,37.1764241 L25.0387538,37.1764241 C25.1780808,39.7118584 25.8460538,42.1922425 27.0015385,44.4643987 L14.3692308,44.4643987 L14.3692308,46.5466772 L28.2159385,46.5466772 C30.0275865,49.1884379 32.4914173,51.3374794 35.3781385,52.7935127 L18.6153846,52.7935127 L18.6153846,54.8757911 L44.0923077,54.8757911 C54.6451942,54.8757911 63.2,46.4853801 63.2,36.1352848 C63.2,25.7851895 54.6451942,17.3947785 44.0923077,17.3947785 Z M44.0923077,52.7935127 C34.7120231,52.7935127 27.1076923,45.3353117 27.1076923,36.1352848 C27.1076923,26.9352579 34.7120231,19.477057 44.0923077,19.477057 C53.4725923,19.477057 61.0769231,26.9352579 61.0769231,36.1352848 C61.0657769,45.3308869 53.4680808,52.7825807 44.0923077,52.7935127 Z" id="Shape"></path>
                    <path d="M56.8,28.7664529 C56.2635022,27.5328176 55.6274385,26.3926819 54.9050072,25.369462 L53.6,27.2427541 C54.219508,28.1198704 54.7650362,29.0969175 55.2254703,30.1542722 L56.8,28.7664529 Z" id="Path"></path>
                    <path d="M53.6,24.5611034 C52.4219532,23.9225347 51.1471802,23.3908891 49.8022558,22.977057 L48.8,24.8086106 C49.9518019,25.163536 51.0435213,25.6194443 52.0523796,26.1669304 L53.6,24.5611034 Z" id="Path"></path>
                    <path d="M46.7518235,22.977057 L47.2,20.9684272 C46.1638983,20.7132218 45.1032792,20.584523 44.0392277,20.5846519 L44,20.5846519 L44.0392277,22.6479594 C44.9524977,22.6477015 45.862703,22.7580885 46.7518235,22.977057 Z" id="Path"></path>
                    <path d="M42.4,23.899402 L42.1095922,22.1795886 C41.1105112,22.3310742 40.1338311,22.5942954 39.2,22.9636981 L39.9094773,24.5719937 C40.7089029,24.2557362 41.5448593,24.029978 42.4,23.899402 Z" id="Path"></path>
                    <path d="M56.673224,34.1416139 L58.4,33.8502929 C58.2476503,32.8549461 57.9834973,31.8820439 57.6131148,30.9517405 L56,31.6598887 C56.3172678,32.4563265 56.5431694,33.2894084 56.673224,34.1416139 Z" id="Path"></path>
                    <path d="M57.8847431,36.534019 L56.3390271,36.5726256 C56.3396711,37.4827771 56.2259322,38.3899124 56,39.2750902 L58.005309,39.7238924 C58.26924,38.6832022 58.4017852,37.6171765 58.4,36.5475313 L57.8847431,36.534019 Z" id="Path"></path>
                    <path d="M32,43.4969627 C32.5348002,44.7330936 33.1694268,45.8755083 33.8909091,46.9011076 L35.2,45.0360216 C34.5808917,44.1562765 34.036132,43.1763804 33.5768384,42.1162975 L32,43.4969627 Z" id="Path"></path>
                    <path d="M34.4,47.7020443 C35.575901,48.34319 36.8488583,48.8774368 38.1924622,49.2935127 L39.2,47.4671887 C38.0496836,47.1098268 36.9592847,46.6522549 35.9515818,46.1036392 L34.4,47.7020443 Z" id="Path"></path>
                    <path d="M41.2540607,49.2935127 L40.8,51.2949007 C41.844928,51.5549782 42.9152314,51.6861746 43.9892124,51.6859177 L44,51.6859177 L43.987251,49.6279348 C43.066871,49.6284493 42.1496782,49.5161606 41.2540607,49.2935127 Z" id="Path"></path>
                    <path d="M54.4,43.7559766 L56.0044623,45.3061709 C56.6465448,44.134478 57.1820267,42.8663915 57.6,41.5280659 L55.7684537,40.5213608 C55.4096064,41.667228 54.9503564,42.7528904 54.4,43.7559766 Z" id="Path"></path>
                    <path d="M38.4,24.5466039 L37.0064516,22.977057 C35.769727,23.51128 34.6266336,24.1444075 33.6,24.8632831 L35.4752688,26.1669304 C36.3563275,25.5491521 37.3379653,25.0053502 38.4,24.5466039 Z" id="Path"></path>
                    <path d="M46.4,48.3680304 L46.6878161,50.090981 C47.6874713,49.9407465 48.6649425,49.6791181 49.6,49.311551 L48.8928736,47.6985759 C48.0926437,48.0143193 47.2558621,48.2389619 46.4,48.3680304 Z" id="Path"></path>
                    <path d="M32,32.9976222 L29.9884639,32.5466772 C29.729919,33.5836795 29.5996134,34.6456257 29.6,35.7111177 L29.6,35.7365506 L31.6662937,35.7111177 C31.6657771,34.7973672 31.7777444,33.8867958 32,32.9976222 Z" id="Path"></path>
                    <path d="M34.4,28.5031726 L32.7900621,26.9643987 C32.1493168,28.1375657 31.6156522,29.4069884 31.2,30.7461758 L33.0365217,31.7492089 C33.3930435,30.5999001 33.8506832,29.5103192 34.4,28.5031726 Z" id="Path"></path>
                    <path d="M50.4,46.9219413 L51.7876966,48.4960443 C53.025931,47.9643216 54.1711448,47.3331757 55.2,46.6154542 L53.3263448,45.3061709 C52.4446345,45.9229646 51.4624552,46.46522 50.4,46.9219413 Z" id="Path"></path>
                    <path d="M31.3261471,38.9264241 L29.6,39.2150796 C29.751748,40.2113996 30.0158048,41.1852686 30.3865987,42.1162975 L32,41.4106949 C31.6824108,40.6134556 31.4561544,39.7795617 31.3261471,38.9264241 Z" id="Path"></path>
                    <rect id="Rectangle" x="0" y="34.9390823" width="6.4" height="1.59493671"></rect>
                    <rect id="Rectangle" x="8" y="18.1922468" width="4.8" height="1.59493671"></rect>
                    <rect id="Rectangle" x="12.8" y="52.4833861" width="4.8" height="1.59493671"></rect>
                    <rect id="Rectangle" x="10.4" y="45.3061709" width="1.6" height="1.59493671"></rect>
                    <rect id="Rectangle" x="4.8" y="45.3061709" width="4.8" height="1.59493671"></rect>
                    <rect id="Rectangle" x="10.4" y="26.1669304" width="1.6" height="1.59493671"></rect>
                    <rect id="Rectangle" x="4.8" y="18.1922468" width="1.6" height="1.59493671"></rect>
                </g>
            </g>
        </g>
    </g>
</svg>