<?xml version="1.0" encoding="UTF-8"?>
<svg width="29px" height="26px" viewBox="0 0 29 26" version="1.1" xmlns="http://www.w3.org/2000/svg" xmlns:xlink="http://www.w3.org/1999/xlink">
    <!-- Generator: Sketch 64 (93537) - https://sketch.com -->
    <title>agreement copy 3</title>
    <desc>Created with Sketch.</desc>
    <g id="Styleguide" stroke="none" stroke-width="1" fill="none" fill-rule="evenodd">
        <g id="Blockchain" transform="translate(-931.000000, -1722.000000)" fill="#FFFFFF" fill-rule="nonzero">
            <g id="agreement-copy-3" transform="translate(931.000000, 1722.000000)">
                <path d="M15,0 C14.4472667,0 14,0.357813333 14,0.8 L14,3.2 C14,3.64218667 14.4472667,4 15,4 C15.5527333,4 16,3.64218667 16,3.2 L16,0.8 C16,0.357813333 15.5527333,0 15,0 Z" id="Path"></path>
                <path d="M10.7070476,5.29296911 L8.70703089,3.29295244 C8.31636097,2.90234919 7.6835557,2.90234919 7.29295244,3.29295244 C6.90234919,3.6835557 6.90234919,4.31642764 7.29295244,4.70703089 L9.29296911,6.70704756 C9.68357236,7.09765081 10.3164443,7.09765081 10.7070476,6.70704756 C11.0976508,6.3164443 11.0976508,5.68357236 10.7070476,5.29296911 Z" id="Path"></path>
                <path d="M21.7070476,3.29295244 C21.3164443,2.90234919 20.6835724,2.90234919 20.2929691,3.29295244 L18.2929524,5.29296911 C17.9023492,5.68357236 17.9023492,6.3164443 18.2929524,6.70704756 C18.6835557,7.09765081 19.3164276,7.09765081 19.7070309,6.70704756 L21.7070476,4.70703089 C22.0976508,4.31642764 22.0976508,3.6835557 21.7070476,3.29295244 Z" id="Path"></path>
                <path d="M28.0163934,11 L25,11 L25,23 L28.0163934,23 C28.5600656,23 29,22.6166286 29,22.1428571 L29,11.8571429 C29,11.3833714 28.5600656,11 28.0163934,11 Z" id="Path"></path>
                <path d="M0.983606557,11 C0.439934426,11 0,11.3833714 0,11.8571429 L0,22.1428571 C0,22.6166286 0.439934426,23 0.983606557,23 L4,23 L4,11 L0.983606557,11 Z" id="Path"></path>
                <path d="M14.0768427,13 C13.4334445,13 12.8551677,13.31785 12.5676883,13.8291 L10,18.39645 C10.4299819,18.56415 10.8847078,18.64915 11.3493312,18.64915 C12.6335971,18.64915 13.7893633,18.0127 14.3651657,16.9873 L14.9203856,16 L16.553091,16 C16.997132,16 17.4320627,16.1604 17.7459169,16.43945 L24,22 L24,13 L14.0768427,13 Z" id="Path"></path>
                <path d="M16.0442285,17.116677 L15.4579696,17.116677 L15.4095619,17.2124844 C14.6175421,18.7781122 13.0729667,19.8834888 11.3078734,20.0260949 C10.0091377,20.1311294 9.10912289,19.7618233 8.04191697,19.2820128 C7.60792437,19.0869723 7.4191007,18.5744524 7.63229593,18.152933 L10.5823165,12.3195659 C11.1504644,11.1960666 12.312194,10.4863514 13.5828689,10.4863514 L17.2013185,10.4863514 C17.433575,9.9778649 17.5770654,9.42274551 17.5770654,8.82878379 C17.5770654,8.37068737 17.2020452,8 16.7385943,8 L10.2289848,8 C9.27597863,8 8.40486313,8.53213445 7.97864036,9.37467605 L7.22893547,10.8568177 C7.08684258,11.1376649 6.79650801,11.3151352 6.47878339,11.3151352 L5,11.3151352 L5,22.9181083 L8.84517222,22.9181083 L11.2205606,25.2660528 C11.909113,25.94665 12.9008566,26.1615261 13.7564324,25.878745 L20.9170308,23.653792 C21.3449864,23.5347234 21.7057526,23.302001 22,23.0035835 L16.0442285,17.116677 Z" id="Path"></path>
            </g>
        </g>
    </g>
</svg>