<?xml version="1.0" encoding="UTF-8"?>
<svg width="16px" height="25px" viewBox="0 0 16 25" version="1.1" xmlns="http://www.w3.org/2000/svg" xmlns:xlink="http://www.w3.org/1999/xlink">
    <!-- Generator: Sketch 64 (93537) - https://sketch.com -->
    <title>solution copy 3</title>
    <desc>Created with Sketch.</desc>
    <g id="Styleguide" stroke="none" stroke-width="1" fill="none" fill-rule="evenodd">
        <g id="Blockchain" transform="translate(-936.000000, -1657.000000)" fill="#FFFFFF" fill-rule="nonzero">
            <g id="Group-11" transform="translate(919.000000, 1644.000000)">
                <g id="solution-copy-3" transform="translate(17.000000, 13.000000)">
                    <path d="M8.00005094,4.6875 C3.58884694,4.6875 0,8.04358099 0,12.1687887 C0,14.6985324 1.38115644,17.0629802 3.63311281,18.4379859 L3.63311281,18.75 L7.22873461,18.75 L7.22873461,15.0211217 C6.22748025,14.7164911 5.50149951,13.8358491 5.50149951,12.7992001 C5.50149951,12.4009653 5.84676315,12.0780902 6.27261208,12.0780902 C6.69846101,12.0780902 7.04372465,12.4009653 7.04372465,12.7992001 C7.04372465,13.2921824 7.47262991,13.693323 7.99984718,13.693323 C8.52706446,13.693323 8.95591878,13.29223 8.95591878,12.7992001 C8.95591878,12.4009653 9.30118242,12.0780902 9.72703135,12.0780902 C10.1528803,12.0780902 10.4981439,12.4009653 10.4981439,12.7992001 C10.4981439,13.8358491 9.77221412,14.7164911 8.77090881,15.0211217 L8.77090881,18.75 L12.3666834,18.75 L12.3666834,18.4380812 C14.6187926,17.0630754 16,14.6985801 16,12.1687887 C16,8.04362862 12.4112549,4.6875 8.00005094,4.6875 Z" id="Path"></path>
                    <path d="M4,20.3125 L4,20.9153821 C4,23.167673 5.97383321,25 8.4,25 C10.8261668,25 12.8,23.1676253 12.8,20.9153821 L12.8,20.3125 L4,20.3125 Z" id="Path"></path>
                    <path d="M8,0 C7.55819791,0 7.2,0.372574801 7.2,0.832109374 L7.2,2.29289063 C7.2,2.7524252 7.55819791,3.125 8,3.125 C8.44180209,3.125 8.8,2.7524252 8.8,2.29289063 L8.8,0.832109374 C8.8,0.372574801 8.44180209,0 8,0 Z" id="Path"></path>
                    <path d="M5.56041052,2.25394727 L5.18153592,1.19732725 C5.06234123,0.864955222 4.70999914,0.697366615 4.39475418,0.822962439 C4.07942857,0.948558262 3.92039479,1.31986287 4.03958948,1.6522774 L4.41846408,2.70889742 C4.51080368,2.96642199 4.74298332,3.125 4.98955827,3.125 C5.0612525,3.125 5.13423708,3.11156911 5.20524582,3.08326223 C5.52057143,2.95766641 5.67960521,2.5863618 5.56041052,2.25394727 Z" id="Path"></path>
                    <path d="M11.6052264,0.822973214 C11.2898599,0.697337796 10.9376381,0.865007527 10.8184432,1.19737186 L10.439568,2.25396743 C10.3204134,2.58633177 10.4794475,2.95762778 10.7947736,3.0832632 C10.8658228,3.11156942 10.9387672,3.125 11.0104616,3.125 C11.2570369,3.125 11.4892573,2.96638316 11.5815568,2.70886455 L11.960432,1.65226898 C12.0795866,1.31986214 11.9205525,0.948608633 11.6052264,0.822973214 Z" id="Path"></path>
                </g>
            </g>
        </g>
    </g>
</svg>