<?xml version="1.0" encoding="UTF-8"?>
<svg width="30px" height="20px" viewBox="0 0 30 20" version="1.1" xmlns="http://www.w3.org/2000/svg" xmlns:xlink="http://www.w3.org/1999/xlink">
    <!-- Generator: Sketch 64 (93537) - https://sketch.com -->
    <title>dollar copy 3</title>
    <desc>Created with Sketch.</desc>
    <g id="Styleguide" stroke="none" stroke-width="1" fill="none" fill-rule="evenodd">
        <g id="Blockchain" transform="translate(-691.000000, -1726.000000)" fill="#FFFFFF" fill-rule="nonzero">
            <g id="Group-10" transform="translate(681.000000, 1711.000000)">
                <g id="dollar-copy-3" transform="translate(10.000000, 15.000000)">
                    <path d="M15.36863,15.0010811 L15.36863,14.8843243 C14.8047399,14.8778378 14.2653669,14.8454054 13.7443815,14.8 C13.4624365,15.5718919 13.064036,16.2918919 12.5675676,16.9340541 C13.5053412,17.0962162 14.4553733,17.187027 15.4054054,17.2 L15.36863,15.0010811 Z" id="Path"></path>
                    <path d="M12.8427378,11.1072458 C12.3611668,8.83307599 10.6626531,6.98290391 8.40447585,6.28266518 C7.77973516,6.09636313 7.13547133,6 6.48469979,6 C4.87078635,6.00642421 3.30893464,6.5974514 2.11802271,7.66387002 C-0.530617482,10.0408272 -0.719341231,14.0945028 1.68851349,16.7091557 C4.09636821,19.3238086 8.20273667,19.5101107 10.8513769,17.1331535 C12.2049817,15.9189781 12.9793998,14.2037144 12.9729328,12.3985118 C12.9729328,11.9680898 12.9273381,11.5312436 12.8427378,11.1072458 Z M6.48469979,11.5376678 C7.5845037,11.5376678 8.5541533,12.2571792 8.85350821,13.3043252 C9.21794028,14.5955911 8.46304529,15.9318265 7.14848676,16.2980064 L7.14848676,16.8633367 C7.14848676,17.2166682 6.85563957,17.5057576 6.49771522,17.5057576 C6.13979087,17.5057576 5.84694367,17.2166682 5.84694367,16.8633367 L5.84694367,16.3044306 C4.77317062,16.0153412 4.03129106,15.0581341 4.02478334,13.9595944 C4.02478334,13.606263 4.31763054,13.3171736 4.67555489,13.3171736 C5.03347924,13.3171736 5.32632643,13.606263 5.32632643,13.9595944 C5.32632643,14.5891669 5.84694367,15.0966794 6.48469979,15.0966794 C7.1224559,15.0966794 7.63656542,14.5827427 7.63656542,13.9531702 C7.63656542,13.3235978 7.11594819,12.8160853 6.47819207,12.8160853 C5.36537273,12.8160853 4.39572312,12.0773013 4.10938364,11.0173069 C3.76447472,9.73246519 4.54540058,8.3962298 5.85345139,8.04932254 L5.85345139,7.77308157 C5.85345139,7.4197501 6.14629858,7.13066071 6.50422293,7.13066071 C6.86214728,7.13066071 7.15499448,7.4197501 7.15499448,7.77308157 L7.15499448,8.06217096 C8.2157521,8.35768455 8.94461623,9.31489163 8.94461623,10.4005829 C8.94461623,10.7539144 8.65176904,11.0430037 8.29384468,11.0430037 C7.93592033,11.0430037 7.64307314,10.7539144 7.64307314,10.4005829 C7.64307314,9.77101044 7.1224559,9.25707375 6.48469979,9.25707375 C5.84694367,9.25707375 5.33283415,9.76458623 5.32632643,10.4005829 C5.32632643,11.0301553 5.84694367,11.5376678 6.48469979,11.5376678 Z" id="Shape"></path>
                    <path d="M15.4054054,14 L15.3698088,11.6465374 C15.0019776,11.6398892 14.6400791,11.6265928 14.2959789,11.6 C14.3137772,11.865928 14.3256427,12.1252078 14.3256427,12.3844875 C14.3256427,12.9030471 14.2781806,13.4282548 14.1891892,13.9401662 C14.5807515,13.9800554 14.9901121,14 15.4054054,14 Z" id="Path"></path>
                    <path d="M22.7027027,3.2 C22.253283,3.43649635 21.7778099,3.6270073 21.2893102,3.77153285 C19.8238112,4.21824818 17.902379,4.46131387 15.8962736,4.46131387 C13.9748414,4.46131387 12.1445959,4.2379562 10.7312035,3.82408759 C10.2427038,3.69270073 9.77374405,3.50875912 9.32432432,3.27883212 L9.36991763,5.13138686 C10.1059238,5.40729927 10.7898234,5.80145985 11.4085897,6.29416058 C11.4281297,6.30072993 11.4411563,6.30072993 11.4606963,6.30729927 C12.7112556,6.62919708 14.2874812,6.8 15.8962736,6.8 C17.7590858,6.8 19.5893313,6.56350365 20.9115371,6.16277372 C22.3249296,5.72919708 22.6375694,5.27591241 22.6375694,5.19051095 C22.6375694,5.09854015 22.6310561,5.01313869 22.7027027,4.92116788 L22.7027027,3.2 Z" id="Path"></path>
                    <path d="M20.5704243,0.636065574 C19.2475744,0.229508197 17.4164374,0 15.5527178,0 C13.6759653,0 11.9165098,0.229508197 10.6001764,0.636065574 C9.22519451,1.0557377 8.92543542,1.46885246 8.91891892,1.6 C8.91891892,1.6 8.92543542,1.6 8.92543542,1.61311475 C8.95801793,1.75737705 9.34900804,2.20327869 10.7500559,2.60983607 C12.0468398,2.99016393 13.7541633,3.2 15.5527178,3.2 C17.4164374,3.2 19.2410579,2.9704918 20.5639078,2.5704918 C21.9779887,2.1442623 22.2972973,1.69180328 22.2972973,1.6 C22.2972973,1.5147541 21.9845052,1.06885246 20.5704243,0.636065574 Z" id="Path"></path>
                    <path d="M29.9934323,18.3744059 L29.9934323,16.4 C29.5533973,16.623766 29.0936592,16.8146252 28.614218,16.959415 C27.1430562,17.406947 25.2187239,17.650457 23.1893086,17.650457 C21.3897624,17.650457 19.6361899,17.4464351 18.2569757,17.0844607 C17.6921546,16.9396709 17.1470366,16.7422303 16.6216216,16.4855576 L16.6544601,18.3941499 C16.6544601,18.4007313 16.6544601,18.4007313 16.6544601,18.4073126 C16.6544601,18.5060329 16.9434383,18.9469835 18.3292202,19.3747715 C19.6427576,19.776234 21.4160331,20 23.3140947,20 C25.2055885,20 26.9854317,19.7696527 28.3121044,19.3550274 C29.6978864,18.9206581 30,18.4665448 30,18.3744059 L29.9934323,18.3744059 L29.9934323,18.3744059 Z" id="Path"></path>
                    <path d="M22.2972973,6.8 C21.8491322,7.03161765 21.3814816,7.22352941 20.8943456,7.36911765 C19.4329376,7.81911765 17.5168693,8.06397059 15.509869,8.06397059 C14.5226067,8.06397059 13.5418396,7.99779412 12.5675676,7.87205882 C13.0936744,8.61323529 13.4833832,9.44705882 13.7301988,10.3338235 C14.2887814,10.3735294 14.8928301,10.4 15.5163642,10.4 C15.5358496,10.4 15.5618302,10.4 15.5813156,10.4 C16.6465197,9.20882353 19.5108794,8.61323529 22.2972973,8.53382353 L22.2972973,6.8 L22.2972973,6.8 Z" id="Path"></path>
                    <path d="M28.568703,13.3645756 C27.1112637,13.802952 25.2159389,14.0420664 23.2291158,14.0420664 C21.301113,14.0420664 19.4646087,13.8162362 18.046383,13.397786 C17.5562128,13.2583026 17.0791138,13.0723247 16.6216216,12.8398524 L16.647764,14.3675277 L16.6542996,14.9254613 C17.1640766,15.5697417 19.6018564,16.4 23.2225802,16.4 C25.1113693,16.4 26.8955888,16.1741697 28.2353873,15.7623616 C29.6470775,15.3239852 29.9542508,14.8723247 29.9542508,14.7793358 C29.9542508,14.7062731 29.9934644,14.6265683 29.9934644,14.5601476 L30,14.5601476 L30,12.8 C29.5425078,13.0324723 29.0654088,13.2317343 28.568703,13.3645756 Z" id="Path"></path>
                    <path d="M28.2788051,10.2268041 C26.9487909,9.81773196 25.1232812,9.6 23.2586534,9.6 L23.1478189,9.6 C21.4135846,9.6 19.7641062,9.79793814 18.4992888,10.1608247 C17.1497155,10.5435052 16.6868184,10.9789691 16.6281413,11.1571134 C16.6216216,11.1703093 16.6216216,11.1769072 16.6216216,11.1835052 C16.6216216,11.1835052 16.6216216,11.1835052 16.634661,11.2098969 C16.673779,11.3484536 17.05844,11.7971134 18.4601707,12.2127835 C19.7575865,12.588866 21.4657421,12.8 23.2651731,12.8 C25.1232812,12.8 26.8835941,12.582268 28.220128,12.1797938 C29.6674964,11.7443299 29.9934803,11.2890722 30,11.1901031 L30,11.1835052 C29.9934803,11.0845361 29.6674964,10.6490722 28.2788051,10.2268041 Z" id="Path"></path>
                </g>
            </g>
        </g>
    </g>
</svg>