<?xml version="1.0" encoding="UTF-8"?>
<svg width="73px" height="65px" viewBox="0 0 73 65" version="1.1" xmlns="http://www.w3.org/2000/svg" xmlns:xlink="http://www.w3.org/1999/xlink">
    <!-- Generator: Sketch 64 (93537) - https://sketch.com -->
    <title>Group 20</title>
    <desc>Created with Sketch.</desc>
    <g id="Styleguide" stroke="none" stroke-width="1" fill="none" fill-rule="evenodd">
        <g id="Software-Development_Mobile-App" transform="translate(-500.000000, -922.000000)">
            <g id="Group-20" transform="translate(500.000000, 922.000000)">
                <ellipse id="Oval-Copy" fill="#36C2E1" opacity="0.200000003" cx="33" cy="32.5" rx="33" ry="32.5"></ellipse>
                <g id="presentation" transform="translate(18.000000, 9.000000)" fill="#000000" fill-rule="nonzero">
                    <path d="M52.1551724,0 L2.84482759,0 C1.27365302,0 0,1.28194143 0,2.86334056 C0,4.4447397 1.27365302,5.72668113 2.84482759,5.72668113 L2.84482759,44.8590022 C2.84482759,45.3860954 3.2694181,45.813449 3.79310345,45.813449 L15.0956034,45.813449 L8.74215517,53.8069414 L10.2233621,55 L17.5250862,45.813449 L26.5517241,45.813449 L26.5517241,47.897961 C25.0703987,48.4250542 24.2941164,50.0610954 24.8179203,51.5519414 C25.3416056,53.0429067 26.967069,53.8242408 28.4482759,53.2970282 C29.9294828,52.7698156 30.7058836,51.1338937 30.1820797,49.6430477 C29.8957004,48.8275922 29.2583405,48.1862039 28.4482759,47.897961 L28.4482759,45.813449 L37.4749138,45.813449 L44.7766379,55 L46.2578448,53.8069414 L39.9043966,45.813449 L51.2068966,45.813449 C51.7305819,45.813449 52.1551724,45.3860954 52.1551724,44.8590022 L52.1551724,5.72668113 C53.726347,5.72668113 55,4.4447397 55,2.86334056 C55,1.28194143 53.726347,0 52.1551724,0 Z M27.5,51.5401302 C26.9763147,51.5401302 26.5517241,51.1127766 26.5517241,50.5856833 C26.5517241,50.05859 26.9763147,49.6312364 27.5,49.6312364 C28.0236853,49.6312364 28.4482759,50.05859 28.4482759,50.5856833 C28.4482759,51.1127766 28.0236853,51.5401302 27.5,51.5401302 Z M50.2586207,43.9045553 L4.74137931,43.9045553 L4.74137931,5.72668113 L50.2586207,5.72668113 L50.2586207,43.9045553 Z M52.1551724,3.81778742 L2.84482759,3.81778742 C2.32114224,3.81778742 1.89655172,3.39043384 1.89655172,2.86334056 C1.89655172,2.33624729 2.32114224,1.90889371 2.84482759,1.90889371 L52.1551724,1.90889371 C52.6788578,1.90889371 53.1034483,2.33624729 53.1034483,2.86334056 C53.1034483,3.39043384 52.6788578,3.81778742 52.1551724,3.81778742 Z" id="Shape"></path>
                    <rect id="Rectangle" x="8.65168539" y="30.4519774" width="15.1404494" height="1.86440678"></rect>
                    <rect id="Rectangle" x="8.65168539" y="34.4915254" width="15.1404494" height="1.86440678"></rect>
                    <rect id="Rectangle" x="8.65168539" y="38.220339" width="11.4325843" height="1.86440678"></rect>
                    <rect id="Rectangle" x="16.0674157" y="26.7231638" width="7.7247191" height="1.86440678"></rect>
                    <rect id="Rectangle" x="31.2078652" y="13.3615819" width="15.1404494" height="1.86440678"></rect>
                    <rect id="Rectangle" x="31.2078652" y="17.0903955" width="15.1404494" height="1.86440678"></rect>
                    <rect id="Rectangle" x="31.2078652" y="21.1299435" width="11.4325843" height="1.86440678"></rect>
                    <rect id="Rectangle" x="38.9325843" y="9.63276836" width="7.7247191" height="1.86440678"></rect>
                    <path d="M16.2219101,8.70056497 C12.0410169,8.70056497 8.65168539,12.1090453 8.65168539,16.3135593 C8.65641678,20.5161701 12.0429095,23.9217956 16.2219101,23.9265537 C20.4028033,23.9265537 23.7921348,20.5180734 23.7921348,16.3135593 C23.7921348,12.1090453 20.4028033,8.70056497 16.2219101,8.70056497 Z M17.1965765,10.6951695 C18.6417798,10.9494911 19.9326214,11.7573012 20.798111,12.9486158 L17.1681882,14.771928 L17.1965765,10.6951695 Z M12.9497988,11.6570237 C13.65312,11.1582537 14.4601769,10.8274453 15.309698,10.6893408 L15.275632,15.9329096 L11.5851475,19.5938083 C9.782606,17.0231142 10.3935468,13.4697491 12.9497988,11.6570237 Z M17.8771871,21.7748122 C17.3406474,21.9394432 16.7829347,22.0231861 16.2219101,22.0233051 C15.0320837,22.023424 13.8727748,21.6450344 12.9099368,20.9422599 L16.7972472,17.0881815 L21.6507075,14.6472652 C22.5657584,17.6634384 20.8762972,20.8544725 17.8771871,21.7748122 Z" id="Shape"></path>
                    <rect id="Rectangle" x="29.3539326" y="35.4237288" width="1.85393258" height="4.66101695"></rect>
                    <rect id="Rectangle" x="44.494382" y="33.559322" width="1.85393258" height="6.52542373"></rect>
                    <rect id="Rectangle" x="33.0617978" y="32.3163842" width="1.85393258" height="7.76836158"></rect>
                    <rect id="Rectangle" x="37.0786517" y="28.5875706" width="1.85393258" height="11.4971751"></rect>
                    <rect id="Rectangle" x="40.7865169" y="31.3841808" width="1.85393258" height="8.70056497"></rect>
                    <rect id="Rectangle" x="12.3595506" y="26.7231638" width="1.85393258" height="1.86440678"></rect>
                    <rect id="Rectangle" x="35.2247191" y="9.63276836" width="1.85393258" height="1.86440678"></rect>
                </g>
            </g>
        </g>
    </g>
</svg>