<?xml version="1.0" encoding="UTF-8"?>
<svg width="80px" height="69px" viewBox="0 0 80 69" version="1.1" xmlns="http://www.w3.org/2000/svg" xmlns:xlink="http://www.w3.org/1999/xlink">
    <!-- Generator: Sketch 64 (93537) - https://sketch.com -->
    <title>Group 9</title>
    <desc>Created with Sketch.</desc>
    <g id="Styleguide" stroke="none" stroke-width="1" fill="none" fill-rule="evenodd">
        <g id="Blockchain" transform="translate(-140.000000, -846.000000)">
            <g id="Group-9" transform="translate(140.000000, 846.000000)">
                <g id="Group-8">
                    <g id="exchange-(3)-copy" transform="translate(17.254902, 0.000000)" fill="#000000" fill-rule="nonzero">
                        <path d="M49.2470767,41.219181 L49.2470767,40.2222309 C49.2470767,39.6602141 48.8094178,39.2045455 48.2696141,39.2045455 C47.7298104,39.2045455 47.2921515,39.6602141 47.2921515,40.2222309 L47.2921515,41.0176793 L46.1124764,41.0176793 L46.1124764,40.2222309 C46.1124764,39.6602141 45.6748175,39.2045455 45.1350138,39.2045455 C44.5952101,39.2045455 44.1575512,39.6602141 44.1575512,40.2222309 L44.1575512,41.0176793 L43.0451988,41.0176793 C42.5053951,41.0176793 42.0677362,41.473348 42.0677362,42.0353648 C42.0677362,42.5973816 42.5053951,43.0530502 43.0451988,43.0530502 L43.4608647,43.0530502 L43.4608647,50.3250489 L43.0451988,50.3250489 C42.5053951,50.3250489 42.0677362,50.7807176 42.0677362,51.3427344 C42.0677362,51.9047512 42.5053951,52.3604199 43.0451988,52.3604199 L44.1575512,52.3604199 L44.1575512,53.1558683 C44.1575512,53.7178851 44.5952101,54.1735537 45.1350138,54.1735537 C45.6748175,54.1735537 46.1124764,53.7178851 46.1124764,53.1558683 L46.1124764,52.3604199 L47.2921515,52.3604199 L47.2921515,53.1558683 C47.2921515,53.7178851 47.7298104,54.1735537 48.2696141,54.1735537 C48.8094178,54.1735537 49.2470767,53.7178851 49.2470767,53.1558683 L49.2470767,52.1589181 C51.4275514,51.3259426 52.0577704,48.4049309 50.388753,46.688986 C52.0607028,44.9702424 51.4231528,42.0503756 49.2470767,41.219181 Z M45.4159121,43.0530502 L48.1535404,43.0530502 C48.830922,43.0530502 49.3819666,43.6267704 49.3819666,44.3320264 C49.3819666,45.0372825 48.830922,45.6110027 48.1535404,45.6110027 L45.4159121,45.6110027 L45.4159121,43.0530502 Z M48.1535404,50.3250489 L45.4159121,50.3250489 L45.4159121,47.7672237 L48.1535404,47.7672237 C48.830922,47.7672237 49.3819666,48.3409439 49.3819666,49.0461999 C49.3819666,49.751456 48.830922,50.3250489 48.1535404,50.3250489 Z" id="Shape"></path>
                        <path d="M39.0389311,31.6617386 C38.5477545,31.9065955 38.3481285,32.5029685 38.5930958,32.993924 C38.8381872,33.4850036 39.4349531,33.6841671 39.9258813,33.4395585 C49.3991059,28.7173718 60.7575345,35.5924863 60.7575345,46.3372582 C60.7575345,54.2793378 54.2933569,60.7406043 46.347699,60.7406043 C35.1534929,60.7406043 28.3617399,48.542336 33.8993403,39.077351 C34.1762327,38.6039031 34.016855,37.9953617 33.5430695,37.7184698 C33.0691598,37.4414537 32.4605927,37.6008839 32.1835761,38.0745801 C25.8878444,48.835618 33.5988455,62.7272727 46.347699,62.7272727 C55.3892497,62.7272727 62.745098,55.3747371 62.745098,46.3372582 C62.745098,34.1034783 49.813016,26.291153 39.0389311,31.6617386 Z" id="Path"></path>
                        <path d="M37.0602861,35.6404959 C37.6402987,35.6404959 38.0342826,34.9272977 37.6143696,34.4506976 C37.3597766,34.1617354 36.9199381,34.1345934 36.631846,34.3899554 C36.0822001,34.8797337 36.4534743,35.6404959 37.0602861,35.6404959 Z" id="Path"></path>
                        <path d="M57.3543872,48.9789944 C57.8967149,49.0287073 58.3699656,48.6308813 58.4188339,48.0922427 C59.0308509,41.3843006 53.7337252,35.6404959 47.0584894,35.6404959 C40.7681985,35.6404959 35.6506239,40.756644 35.6506239,47.0454545 C35.6506239,53.3342651 40.768076,58.4504132 47.0584894,58.4504132 C51.4282201,58.4504132 55.3477257,56.0169276 57.2876373,52.0997676 C57.527692,51.6148827 57.3291569,51.0272659 56.8442709,50.7871499 C56.3590175,50.5472788 55.7714958,50.7455183 55.5313186,51.2304033 C53.9244217,54.4754589 50.6778042,56.4912822 47.0584894,56.4912822 C41.8488122,56.4912822 37.6102542,52.2539268 37.6102542,47.0454545 C37.6102542,41.8369823 41.8486897,37.5996269 47.0584894,37.5996269 C52.5986093,37.5996269 56.9710345,42.3642335 56.467287,47.9148189 C56.4184188,48.45358 56.8154888,48.9301386 57.3543872,48.9789944 L57.3543872,48.9789944 Z" id="Path"></path>
                        <path d="M32.798574,16.394566 C32.798574,7.35457747 25.443465,0 16.4028231,0 C11.5221062,0 6.92918436,2.15228359 3.8019433,5.90502459 C3.45055255,6.32656366 3.50756504,6.9530348 3.92913458,7.30440016 C4.35033148,7.65576552 4.97709632,7.59863294 5.32861128,7.17721807 C8.07738376,3.87892948 12.1137195,1.98734432 16.4028231,1.98734432 C24.3476823,1.98734432 30.8112102,8.45040516 30.8112102,16.3946902 C30.8112102,24.3389752 24.3476823,30.8020361 16.4028231,30.8020361 C7.26119831,30.8020361 0.34566933,22.3256729 2.32992782,13.2881683 C2.44767912,12.7522399 2.10858518,12.2222732 1.57249381,12.1046546 C1.0359056,11.9866634 0.506397373,12.3259812 0.388894492,12.8620338 C-1.86912335,23.1406815 5.99847707,32.7892562 16.4028231,32.7892562 C25.443465,32.7892562 32.798574,25.4346787 32.798574,16.394566 Z" id="Path"></path>
                        <path d="M2.54160811,10.6249704 C2.89186636,10.7888362 3.31265174,10.643033 3.47994452,10.2951547 C3.90345941,9.41477767 2.63062548,8.81932047 2.20719864,9.6995238 C2.04043415,10.0461864 2.19020521,10.4605836 2.54160811,10.6249704 Z" id="Path"></path>
                        <path d="M26.0310845,17.3316514 C26.5695053,17.3649566 27.0367654,16.9561105 27.0710597,16.4160025 C27.4895729,9.82303692 22.2433993,4.2768595 15.6862029,4.2768595 C9.39576724,4.2768595 4.27807487,9.39300767 4.27807487,15.6818182 C4.27807487,21.9706287 9.39564476,27.0867769 15.6862029,27.0867769 C19.7426085,27.0867769 23.5272317,24.9050396 25.5630895,21.3926851 C25.8343821,20.9246976 25.674791,20.325326 25.206551,20.0539863 C24.7383111,19.7827692 24.1386504,19.9423159 23.8674803,20.4104257 C22.1808122,23.3201026 19.0460664,25.1275234 15.6862029,25.1275234 C10.4764058,25.1275234 6.23775029,20.8901679 6.23775029,15.6816957 C6.23775029,10.4732235 10.4762833,6.23586806 15.6862029,6.23586806 C21.1152387,6.23586806 25.4646158,10.8297854 25.1151812,16.2917202 C25.0810093,16.8318281 25.4909489,17.2973666 26.0310845,17.3316514 Z" id="Path"></path>
                        <path d="M16.4257088,23.5227273 C16.9468326,23.5227273 17.3693463,23.0740824 17.3693463,22.5207287 L17.3693463,21.8704316 C18.8249071,21.7131179 19.9643494,20.4040067 19.9643494,18.8175925 C19.9643494,17.1254674 18.6680274,15.7489719 17.0744596,15.7489719 L15.7241144,15.7489719 C15.1712608,15.7489719 14.7214996,15.2713943 14.7214996,14.6808414 C14.7214996,14.0937955 15.1712608,13.6162179 15.7241144,13.6162179 L17.9591197,13.6162179 C18.4802435,13.6162179 18.9027572,13.167573 18.9027572,12.6142193 C18.9027572,12.0608656 18.4802435,11.6122208 17.9591197,11.6122208 L17.3693463,11.6122208 L17.3693463,10.9813374 C17.3693463,10.4279837 16.9468326,9.97933884 16.4257088,9.97933884 C15.904585,9.97933884 15.4820714,10.4279837 15.4820714,10.9813374 L15.4820714,11.6237437 C14.0015042,11.7548803 12.8342246,13.0755144 12.8342246,14.6843484 C12.8342246,16.3764735 14.1305466,17.752969 15.7241144,17.752969 L17.0744596,17.752969 C17.6273132,17.752969 18.0770744,18.2305466 18.0770744,18.8175925 C18.0770744,19.4046384 17.6273132,19.882216 17.0744596,19.882216 L14.8394542,19.882216 C14.3183304,19.882216 13.8958168,20.3308608 13.8958168,20.8842145 C13.8958168,21.4375682 14.3183304,21.8862131 14.8394542,21.8862131 L15.4820714,21.8862131 L15.4820714,22.5206035 C15.4820714,23.0740824 15.904585,23.5227273 16.4257088,23.5227273 Z" id="Path"></path>
                        <path d="M35.9268646,11.9556557 C44.1541124,11.9556557 50.976126,18.0764326 52.0716002,25.9984988 L51.4224028,25.4580996 C51.0028358,25.1086621 50.378988,25.1652342 50.0291634,25.5845839 C49.6793387,26.0038101 49.7360971,26.626844 50.1557878,26.9762815 C52.7815131,29.1619645 52.7388515,29.2252066 53.2153006,29.2252066 C53.7681695,29.2252066 53.8583152,28.9926188 56.0382582,26.8149647 C56.4245616,26.4289653 56.4245616,25.803461 56.0382582,25.4174616 C55.6518312,25.0317093 55.0256339,25.0317093 54.6392069,25.4174616 L54.0663056,25.9897289 C52.9540141,16.9788356 45.2436511,9.97933884 35.9268646,9.97933884 C35.3805495,9.97933884 34.9376114,10.4217868 34.9376114,10.9674973 C34.9376114,11.5132078 35.3805495,11.9556557 35.9268646,11.9556557 Z" id="Path"></path>
                        <path d="M26.8184105,51.4844688 C18.5916073,51.4844688 11.7699623,45.363439 10.6745472,37.4410455 L11.3237095,37.981467 C11.7430066,38.330919 12.3669443,38.2740975 12.7168737,37.8549775 C13.0666795,37.435734 13.0099241,36.8126743 12.5902562,36.4632224 C9.93907722,34.2562028 9.99904745,34.2239628 9.55081632,34.2151926 C8.99810097,34.2054341 8.92626034,34.4085091 6.70797993,36.6244224 C6.08292935,37.2490878 6.53412808,38.311402 7.40746779,38.311402 C7.92951795,38.311402 8.1476365,37.981467 8.67982595,37.4496923 C9.79205741,46.4609578 17.5020038,53.4607438 26.8182869,53.4607438 C27.3645724,53.4607438 27.8074866,53.0182776 27.8074866,52.4725445 C27.8074866,51.9268115 27.3646961,51.4844688 26.8184105,51.4844688 Z" id="Path"></path>
                    </g>
                    <ellipse id="Oval" fill="#36C2E1" opacity="0.200000003" cx="30.1960784" cy="38.8125" rx="30.1960784" ry="30.1875"></ellipse>
                </g>
            </g>
        </g>
    </g>
</svg>