<?xml version="1.0" encoding="UTF-8"?>
<svg width="80px" height="73px" viewBox="0 0 80 73" version="1.1" xmlns="http://www.w3.org/2000/svg" xmlns:xlink="http://www.w3.org/1999/xlink">
    <!-- Generator: Sketch 64 (93537) - https://sketch.com -->
    <title>Group 5</title>
    <desc>Created with Sketch.</desc>
    <g id="Styleguide" stroke="none" stroke-width="1" fill="none" fill-rule="evenodd">
        <g id="Blockchain" transform="translate(-859.000000, -1153.000000)">
            <g id="Group-5" transform="translate(859.000000, 1153.000000)">
                <ellipse id="Oval-Copy-2" fill="#36C2E1" opacity="0.200000003" cx="30.4950495" cy="42.451087" rx="30.4950495" ry="30.548913"></ellipse>
                <g id="wallet-(5)" transform="translate(24.554455, 0.000000)" fill="#000000" fill-rule="nonzero">
                    <polygon id="Path" points="28.8028803 44.0019763 30.2430243 44.0019763 30.2430243 45.444664 28.8028803 45.444664"></polygon>
                    <path d="M5.36053605,44.0019763 L3.60036004,44.0019763 L3.60036004,51.0551164 C3.60036004,51.541783 3.99463946,51.9367589 4.48044804,51.9367589 L11.5211521,51.9367589 L11.5211521,50.1734739 L5.36053605,50.1734739 L5.36053605,44.0019763 Z" id="Path"></path>
                    <polygon id="Path" points="13.6813681 50.4940711 15.1215122 50.4940711 15.1215122 51.9367589 13.6813681 51.9367589"></polygon>
                    <polygon id="Path" points="44.6444644 29.5750988 46.0846085 29.5750988 46.0846085 31.0177866 44.6444644 31.0177866"></polygon>
                    <polygon id="Path" points="44.6444644 38.2312253 46.0846085 38.2312253 46.0846085 39.673913 44.6444644 39.673913"></polygon>
                    <polygon id="Path" points="44.6444644 41.8379447 46.0846085 41.8379447 46.0846085 43.2806324 44.6444644 43.2806324"></polygon>
                    <polygon id="Path" points="44.6444644 31.7391304 46.0846085 31.7391304 46.0846085 33.1818182 44.6444644 33.1818182"></polygon>
                    <polygon id="Path" points="44.6444644 35.3458498 46.0846085 35.3458498 46.0846085 36.7885375 44.6444644 36.7885375"></polygon>
                    <path d="M44.6444644,46.1660079 L45.3645365,46.1660079 C45.7620162,46.1660079 46.0846085,45.8428458 46.0846085,45.444664 L46.0846085,44.7233202 L44.6444644,44.7233202 L44.6444644,46.1660079 Z" id="Path"></path>
                    <polygon id="Path" points="40.3240324 44.7233202 42.4842484 44.7233202 42.4842484 46.1660079 40.3240324 46.1660079"></polygon>
                    <polygon id="Path" points="37.4437444 44.7233202 38.8838884 44.7233202 38.8838884 46.1660079 37.4437444 46.1660079"></polygon>
                    <polygon id="Path" points="9.36093609 23.8043478 10.8010801 23.8043478 10.8010801 25.2470356 9.36093609 25.2470356"></polygon>
                    <polygon id="Path" points="9.36093609 20.1976285 10.8010801 20.1976285 10.8010801 21.6403162 9.36093609 21.6403162"></polygon>
                    <polygon id="Path" points="9.36093609 16.5909091 10.8010801 16.5909091 10.8010801 18.0335968 9.36093609 18.0335968"></polygon>
                    <polygon id="Path" points="9.36093609 12.9841897 10.8010801 12.9841897 10.8010801 14.4268775 9.36093609 14.4268775"></polygon>
                    <path d="M10.8010801,9.37747036 L10.0810081,9.37747036 C9.68352835,9.37747036 9.36093609,9.70063241 9.36093609,10.0988142 L9.36093609,10.8201581 L10.8010801,10.8201581 L10.8010801,9.37747036 Z" id="Path"></path>
                    <polygon id="Path" points="15.8415842 9.37747036 17.2817282 9.37747036 17.2817282 10.8201581 15.8415842 10.8201581"></polygon>
                    <polygon id="Path" points="18.7218722 9.37747036 20.1620162 9.37747036 20.1620162 10.8201581 18.7218722 10.8201581"></polygon>
                    <polygon id="Path" points="22.3222322 9.37747036 23.7623762 9.37747036 23.7623762 10.8201581 22.3222322 10.8201581"></polygon>
                    <polygon id="Path" points="12.2412241 9.37747036 13.6813681 9.37747036 13.6813681 10.8201581 12.2412241 10.8201581"></polygon>
                    <polygon id="Path" points="24.4824482 9.37747036 25.9225923 9.37747036 25.9225923 10.8201581 24.4824482 10.8201581"></polygon>
                    <path d="M41.1370169,0 C33.2476525,0 26.8284893,6.4305014 26.8284893,14.3338008 C26.8284893,19.7268934 29.8198659,24.4292759 34.2251038,26.8758766 L4.47141488,26.8758766 C2.00587672,26.8758766 0,28.8852963 0,31.3551893 L0,51.0641655 C0,53.5340586 2.00587672,55.5434783 4.47141488,55.5434783 L34.8770361,55.5434783 C35.3706803,55.5434783 35.7713191,55.1421318 35.7713191,54.6476157 L35.7713191,34.9386396 L35.7713191,27.7717391 C35.7713191,27.7108205 35.7480677,27.6570687 35.736442,27.5997335 C37.4042798,28.2832766 39.2259342,28.6676017 41.1370169,28.6676017 C49.0263813,28.6676017 55.4455446,22.2371003 55.4455446,14.3338008 C55.4455446,6.4305014 49.0263813,0 41.1370169,0 Z M4.47141488,28.6676017 L33.9827531,28.6676017 L33.9827531,34.042777 L4.47141488,34.042777 C2.99227084,34.042777 1.78856595,32.836946 1.78856595,31.3551893 C1.78856595,29.8734327 2.99227084,28.6676017 4.47141488,28.6676017 Z M4.47141488,53.7517532 C2.99227084,53.7517532 1.78856595,52.5459222 1.78856595,51.0641655 L1.78856595,34.9153471 C2.53797509,35.4842198 3.46087512,35.8345021 4.47141488,35.8345021 L33.9827531,35.8345021 L33.9827531,41.2096774 L28.6170553,41.2096774 C26.644267,41.2096774 25.0399233,42.8168548 25.0399233,44.7931276 C25.0399233,46.7694004 26.644267,48.3765778 28.6170553,48.3765778 L33.9827531,48.3765778 L33.9827531,53.7517532 L4.47141488,53.7517532 Z M33.9827531,43.0014025 L33.9827531,46.5848527 L28.6170553,46.5848527 C27.6306611,46.5848527 26.8284893,45.781264 26.8284893,44.7931276 C26.8284893,43.8049912 27.6306611,43.0014025 28.6170553,43.0014025 L33.9827531,43.0014025 Z M41.1370169,26.8758766 C34.2331523,26.8758766 28.6170553,21.2498597 28.6170553,14.3338008 C28.6170553,7.41774194 34.2331523,1.79172511 41.1370169,1.79172511 C48.0408815,1.79172511 53.6569786,7.41774194 53.6569786,14.3338008 C53.6569786,21.2498597 48.0408815,26.8758766 41.1370169,26.8758766 Z" id="Shape"></path>
                    <path d="M41.0441044,22.3616601 L42.7722772,22.3616601 L42.7722772,20.4731818 C44.2585059,20.0790876 45.3645365,18.7098968 45.3645365,17.071805 C45.3645365,16.013834 44.8962016,15.0740031 44.170369,14.4268775 C44.8962016,13.7797519 45.3645365,12.8399209 45.3645365,11.7819499 C45.3645365,10.1438581 44.2585059,8.77466733 42.7722772,8.38057312 L42.7722772,6.49209486 L41.0441044,6.49209486 L41.0441044,8.25537989 L40.180018,8.25537989 L40.180018,6.49209486 L38.4518452,6.49209486 L38.4518452,8.25537989 L36.7236724,8.25537989 L36.7236724,10.0186649 L37.5877588,10.0186649 L37.5877588,18.83509 L36.7236724,18.83509 L36.7236724,20.5983751 L38.4518452,20.5983751 L38.4518452,22.3616601 L40.180018,22.3616601 L40.180018,20.5983751 L41.0441044,20.5983751 L41.0441044,22.3616601 Z M41.9081908,10.0186649 C42.8612781,10.0186649 43.6363636,10.8094982 43.6363636,11.7819499 C43.6363636,12.7544016 42.8612781,13.545235 41.9081908,13.545235 L39.3159316,13.545235 L39.3159316,10.0186649 L41.9081908,10.0186649 Z M39.3159316,15.30852 L41.9081908,15.30852 C42.8612781,15.30852 43.6363636,16.0993533 43.6363636,17.071805 C43.6363636,18.0442567 42.8612781,18.83509 41.9081908,18.83509 L39.3159316,18.83509 L39.3159316,15.30852 Z" id="Shape"></path>
                    <path d="M50.0450045,14.4268775 C50.0450045,19.3987401 46.0072007,23.4436759 41.0441044,23.4436759 L41.0441044,25.2470356 C47,25.2470356 51.8451845,20.393293 51.8451845,14.4268775 L50.0450045,14.4268775 Z" id="Path"></path>
                    <path d="M41.0441044,3.60671937 C35.0882088,3.60671937 30.2430243,8.46046196 30.2430243,14.4268775 L32.0432043,14.4268775 C32.0432043,9.45501482 36.0810081,5.41007905 41.0441044,5.41007905 L41.0441044,3.60671937 Z" id="Path"></path>
                </g>
            </g>
        </g>
    </g>
</svg>