<?xml version="1.0" encoding="UTF-8"?>
<svg width="80px" height="72px" viewBox="0 0 80 72" version="1.1" xmlns="http://www.w3.org/2000/svg" xmlns:xlink="http://www.w3.org/1999/xlink">
    <!-- Generator: Sketch 64 (93537) - https://sketch.com -->
    <title>Group 6</title>
    <desc>Created with Sketch.</desc>
    <g id="Styleguide" stroke="none" stroke-width="1" fill="none" fill-rule="evenodd">
        <g id="Blockchain" transform="translate(-500.000000, -849.000000)">
            <g id="Group-6" transform="translate(500.000000, 849.000000)">
                <g id="mining" transform="translate(21.276596, 0.000000)" fill="#000000" fill-rule="nonzero">
                    <path d="M58.7087241,57.4125459 C58.7029744,57.3248753 58.6851136,57.2383006 58.6558757,57.1553788 C58.6467006,57.1243288 58.6359352,57.0937659 58.6235795,57.0638118 C58.5774594,56.9616512 58.5143349,56.8681359 58.4366526,56.7871624 L46.9763746,45.3802447 L46.9763746,40.9129412 C46.9764969,40.4585153 46.6609967,40.0644847 46.2159445,39.9631765 L44.7586982,39.6339247 C51.620552,34.4010865 52.921455,24.6224065 47.6641381,17.7923806 C42.4068211,10.9624765 32.5823975,9.66763059 25.7204214,14.9004688 C22.613497,17.2697665 20.5111819,20.7118112 19.8279448,24.5477647 L12.4878862,23.3310918 L7.79709951,5.59630588 C7.74535209,5.40038647 7.6334162,5.22528882 7.47707295,5.09560941 L1.60502613,0.225021176 C1.53150321,0.164747647 1.44978389,0.115189412 1.36231486,0.0779294118 L1.34372005,0.0779294118 C1.24083689,0.0385994118 1.13195936,0.0168035294 1.02173615,0.0136376471 C1.00705603,0.00779294118 0.994333262,0 0.978674471,0 C0.963015679,0 0.946378213,0.00876705882 0.929740747,0.00974117647 C0.833830649,0.01449 0.739143894,0.0336070588 0.648861174,0.06624 C0.627330336,0.0740329412 0.603842148,0.0769552941 0.583289984,0.0866964706 C0.576561597,0.0880358824 0.570077879,0.0899841176 0.563716495,0.0925411765 C0.46902974,0.137715882 0.382539384,0.197867647 0.307303784,0.270804706 C0.28675162,0.290287059 0.272071503,0.312691765 0.253476688,0.334122353 C0.196224231,0.398292353 0.147902179,0.469646471 0.109611541,0.54648 C0.0940750835,0.57546 0.0803736409,0.605414118 0.0685072129,0.636098824 C0.0254455362,0.743738824 0.00220201756,0.858319412 0,0.974117647 L0,57.4729412 C0,58.0108976 0.438201494,58.4470588 0.978674471,58.4470588 L57.7417938,58.4470588 C57.8588677,58.4448671 57.9744736,58.4217318 58.0833512,58.3788706 C58.1167484,58.3659635 58.1494117,58.3513518 58.1812186,58.3350353 C58.2836124,58.2804847 58.3775652,58.2116876 58.4601408,58.1304706 C58.5320734,58.0546112 58.5910385,57.9673059 58.6343449,57.8723294 C58.6343449,57.8635624 58.6451103,57.8577176 58.649025,57.8489506 C58.691108,57.7414324 58.7139845,57.6273388 58.7165535,57.5119059 C58.7165535,57.4992424 58.7234043,57.4885271 58.7234043,57.4758635 C58.7234043,57.4632 58.7097028,57.4339765 58.7087241,57.4125459 Z M35.2322809,13.6376128 C42.7993919,13.6403259 48.9315215,19.7482871 48.928831,27.2801647 C48.9271175,32.1193376 46.3490442,36.5951647 42.1544455,39.0416612 L40.670775,38.7065647 C47.0187023,35.7177282 49.7303645,28.1728218 46.7275466,21.8545729 C43.7247287,15.5362024 36.1445279,12.8371659 29.7967229,15.8260024 C26.083632,17.5743 23.4476946,21.0003935 22.7199278,25.02423 L21.7412534,24.8615524 C22.904408,18.3563947 28.5940543,13.6229135 35.2322809,13.6376128 Z M25.3848584,25.9631576 C25.3760503,25.9397788 25.3574555,25.9212706 25.3476688,25.8988659 C25.3139045,25.8186229 25.2694972,25.7432506 25.2155477,25.6748188 C25.1912032,25.6518053 25.1657577,25.6300094 25.1392111,25.6095529 C25.0855064,25.5531759 25.0254402,25.5031306 24.9601137,25.4605129 C24.9234134,25.4443182 24.8858568,25.4304371 24.8475661,25.4186259 C24.7828513,25.3857494 24.7145887,25.3605441 24.6440018,25.3436188 C25.7141824,19.5224135 31.3228434,15.6668559 37.1714021,16.7320535 C43.0199607,17.7972512 46.8934319,23.3797976 45.8232514,29.2011247 C45.0001862,33.6780476 41.4257,37.1489506 36.9088726,37.8571341 L29.1215599,36.0978776 C27.5441813,34.9839741 26.2788775,33.4874859 25.4456586,31.7503906 L25.4456586,26.3011765 C25.4455362,26.1858653 25.4249841,26.0714065 25.3848584,25.9631576 Z M1.95734894,3.05385882 L5.98361571,6.39313412 L10.3739494,22.9755388 L1.95734894,21.5796282 L1.95734894,3.05385882 Z M42.0830022,56.4988235 C42.0830022,56.2404388 41.9797521,55.9927694 41.7962506,55.8101224 L37.8815527,51.9136518 C37.6980513,51.7310047 37.4492233,51.6282353 37.1896299,51.6282353 L35.1442002,51.6282353 C34.606908,48.4487153 31.5818252,46.3046824 28.3874317,46.8394729 C25.922273,47.2521335 23.990859,49.1745547 23.576268,51.6282353 L21.9360096,51.6282353 L18.3080633,48.0171812 C17.9192849,47.6433635 17.2997839,47.6540788 16.9242176,48.0410471 C16.5579487,48.4185176 16.5579487,49.0169912 16.9242176,49.3945835 L20.8389155,53.2910541 C21.022417,53.4737012 21.2712449,53.5764706 21.5308384,53.5764706 L36.7844586,53.5764706 L39.7204821,56.4988235 L1.95734894,56.4988235 L1.95734894,23.5551388 L4.89337235,24.0421976 L4.89337235,37.0164706 C4.89337235,37.2748553 4.99662251,37.5225247 5.18012397,37.7051718 L12.3175969,44.8094118 L5.18012397,51.9136518 C4.79134554,52.2874694 4.78058012,52.9040859 5.15614645,53.2910541 C5.53171278,53.6780224 6.15121372,53.6887376 6.53999215,53.31492 C6.54818855,53.3071271 6.55614028,53.2990906 6.56396967,53.2910541 L14.3933654,45.4981129 C14.7754155,45.11772 14.7754155,44.5011035 14.3933654,44.1207106 L6.85072129,36.6131859 L6.85072129,24.3665788 L20.4807206,26.62848 L23.4881873,27.1233318 L23.4881873,31.9608 C23.4886766,32.0949847 23.5169359,32.2277082 23.5713746,32.3504471 C24.5537191,34.5709482 26.1526285,36.4662159 28.1799527,37.8132988 C28.2792882,37.8799041 28.390123,37.9277576 28.50683,37.9545459 L45.0190256,41.6922353 L45.0190256,45.7835294 C45.0190256,46.0419141 45.1222758,46.2895835 45.3057773,46.4722306 L55.3792736,56.4988235 L42.0830022,56.4988235 Z M33.1359602,51.6282353 L25.584508,51.6282353 C26.1153166,49.5526341 28.2359818,48.2983359 30.3211701,48.8265512 C31.7041595,49.17699 32.7840044,50.2518071 33.1359602,51.6282353 Z" id="Shape"></path>
                    <path d="M42.366484,43.8431416 C42.3663631,43.3957175 42.0537306,43.007934 41.6133623,42.9090121 L27.0372195,39.629499 L26.5905671,39.3344099 C24.2827423,37.8067489 22.462658,35.6583708 21.3438518,33.1413708 L21.0973229,32.5866416 L21.0973229,29.6625767 C21.0974437,29.1888054 20.7481944,28.7860519 20.2755598,28.7150341 L9.64097929,27.1198283 C9.1146884,27.0303675 8.61498397,27.380666 8.52471088,27.9022217 C8.43443779,28.4237773 8.78791675,28.9189857 9.31420764,29.0084466 C9.32641323,29.0104825 9.33861883,29.0123986 9.35094528,29.0139555 L19.1637628,30.4865268 L19.1637628,32.7859225 C19.1642462,32.9178983 19.192162,33.0484369 19.2459391,33.1691552 L19.5746443,33.9068779 C20.841247,36.7576496 22.9026638,39.1909372 25.5164745,40.9209929 L26.112011,41.3157225 C26.2105017,41.3801535 26.3198687,41.4265007 26.4349155,41.4527282 L40.4329239,44.6086487 L40.4329239,47.1648103 C40.4329239,47.4189414 40.5349192,47.6625337 40.7161904,47.8421739 L46.8484763,53.9192852 C47.2194781,54.299883 47.8314499,54.3104219 48.2155033,53.9427581 C48.5995567,53.5750944 48.6101912,52.9686287 48.2391894,52.5880309 C48.2314552,52.5801267 48.2234792,52.5722225 48.2155033,52.5645579 L42.366484,46.7681645 L42.366484,43.8431416 Z" id="Path"></path>
                    <path d="M32.5605674,33.5938564 L32.5753191,35.5764706 L34.4192908,35.5606729 L34.404539,33.5938564 L35.3191489,33.5938564 L35.3191489,35.5685717 L37.1631206,35.5685717 L37.1631206,33.5938564 L38.0851064,33.5938564 C39.6127216,33.5938564 40.8510638,32.2677117 40.8510638,30.6317835 L40.8510638,28.6570682 C40.8486436,27.9260533 40.5923316,27.2220673 40.1319149,26.6823529 C40.5923316,26.1426386 40.8486436,25.4386526 40.8510638,24.7076377 L40.8510638,22.7329224 C40.8510638,21.0969942 39.6127216,19.7708494 38.0851064,19.7708494 L37.1631206,19.7708494 L37.1631206,17.7961342 L35.3191489,17.7961342 L35.3191489,19.7708494 L34.404539,19.7708494 L34.4192908,17.804033 L32.5753191,17.7882353 L32.5605674,19.7708494 L29.787234,19.7708494 L29.787234,21.7455647 L31.6312057,21.7455647 L31.6312057,31.6191412 L29.787234,31.6191412 L29.787234,33.5938564 L32.5531915,33.5938564 L32.5605674,33.5938564 L32.5605674,33.5938564 Z M33.4751773,21.7455647 L38.0851064,21.7455647 C38.594273,21.7455647 39.0070922,22.1876541 39.0070922,22.7329224 L39.0070922,24.7076377 C39.0070922,25.2529059 38.594273,25.6949953 38.0851064,25.6949953 L33.4751773,25.6949953 L33.4751773,21.7455647 Z M33.4751773,27.6697106 L38.0851064,27.6697106 C38.594273,27.6697106 39.0070922,28.1118 39.0070922,28.6570682 L39.0070922,30.6317835 C39.0070922,31.1770518 38.594273,31.6191412 38.0851064,31.6191412 L33.4751773,31.6191412 L33.4751773,27.6697106 Z" id="Shape"></path>
                    <path d="M35.3191489,10.1647059 C36.0241489,10.1647059 36.5957447,9.72222353 36.5957447,9.17647059 L36.5957447,5.22352941 C36.5957447,4.67777647 36.0241489,4.23529412 35.3191489,4.23529412 C34.6141489,4.23529412 34.0425532,4.67777647 34.0425532,5.22352941 L34.0425532,9.17647059 C34.0425532,9.72222353 34.6141489,10.1647059 35.3191489,10.1647059 Z" id="Path"></path>
                    <path d="M43.8295088,11.7342019 C44.2361571,11.9907507 44.7562121,11.8384938 44.9909968,11.39415 L46.691565,8.17573513 C46.9291131,7.7331334 46.7932802,7.16382516 46.3882261,6.90425684 C45.9831721,6.64468852 45.4621605,6.79311282 45.2246124,7.23571455 C45.2226992,7.23931483 45.2207861,7.24291511 45.218873,7.24651538 L43.5183048,10.4649303 C43.2835201,10.9093902 43.4228604,11.4776532 43.8295088,11.7342019 Z" id="Path"></path>
                    <path d="M51.1473208,17.7882353 C51.3113136,17.7884462 51.4723864,17.749588 51.6145369,17.6755773 L54.8514107,15.9814849 C55.2985366,15.7475943 55.4519003,15.2293079 55.1938802,14.8239963 C54.93586,14.4186847 54.3641042,14.2796632 53.9169783,14.5135539 L50.6801046,16.2076462 C50.2332123,16.4415369 50.0800822,16.9596115 50.3381023,17.3647113 C50.5050153,17.6267663 50.8134948,17.7882353 51.1473208,17.7882353 Z" id="Path"></path>
                    <path d="M52.7659574,25.8352941 C52.7659574,26.5369765 53.2105319,27.1058824 53.7588652,27.1058824 L57.7304965,27.1058824 C58.2788298,27.1058824 58.7234043,26.5369765 58.7234043,25.8352941 C58.7234043,25.1336118 58.2788298,24.5647059 57.7304965,24.5647059 L53.7588652,24.5647059 C53.2105319,24.5647059 52.7659574,25.1336118 52.7659574,25.8352941 Z" id="Path"></path>
                    <path d="M51.6148268,34.8429356 C51.1677359,34.6091068 50.5960249,34.7480915 50.3380249,35.153296 C50.080025,35.5585004 50.2333767,36.0766498 50.6804676,36.3104786 L53.9170881,38.0041232 C54.364179,38.237952 54.93589,38.0989673 55.19389,37.6937628 C55.4518899,37.2885584 55.2985382,36.770409 54.8514473,36.5365802 L51.6148268,34.8429356 Z" id="Path"></path>
                </g>
                <ellipse id="Oval-Copy" fill="#36C2E1" opacity="0.200000003" cx="32.7659574" cy="39.3882353" rx="32.7659574" ry="32.6117647"></ellipse>
            </g>
        </g>
    </g>
</svg>