<?xml version="1.0" encoding="UTF-8"?>
<svg width="60px" height="60px" viewBox="0 0 60 60" version="1.1" xmlns="http://www.w3.org/2000/svg" xmlns:xlink="http://www.w3.org/1999/xlink">
    <!-- Generator: Sketch 64 (93537) - https://sketch.com -->
    <title>Group 8</title>
    <desc>Created with Sketch.</desc>
    <defs>
        <circle id="path-1" cx="20" cy="20" r="20"></circle>
        <filter x="-50.0%" y="-25.0%" width="200.0%" height="200.0%" filterUnits="objectBoundingBox" id="filter-2">
            <feOffset dx="0" dy="10" in="SourceAlpha" result="shadowOffsetOuter1"></feOffset>
            <feGaussianBlur stdDeviation="5" in="shadowOffsetOuter1" result="shadowBlurOuter1"></feGaussianBlur>
            <feColorMatrix values="0 0 0 0 1   0 0 0 0 1   0 0 0 0 1  0 0 0 0.143602491 0" type="matrix" in="shadowBlurOuter1"></feColorMatrix>
        </filter>
    </defs>
    <g id="Styleguide" stroke="none" stroke-width="1" fill="none" fill-rule="evenodd">
        <g id="Livestreaming" transform="translate(-646.000000, -2527.000000)">
            <g id="Group-8" transform="translate(656.000000, 2527.000000)">
                <g id="Oval">
                    <use fill="black" fill-opacity="1" filter="url(#filter-2)" xlink:href="#path-1"></use>
                    <use fill="#36C2E1" fill-rule="evenodd" xlink:href="#path-1"></use>
                </g>
                <g id="share-(2)" transform="translate(10.000000, 9.000000)" fill="#FFFFFF" fill-rule="nonzero">
                    <path d="M19.3103448,3.62060707 C19.3103448,5.23940936 17.9981582,6.55172414 16.3793103,6.55172414 C14.7604624,6.55172414 13.4482759,5.23940936 13.4482759,3.62060707 C13.4482759,2.00196995 14.7604624,0.689655172 16.3793103,0.689655172 C17.9981582,0.689655172 19.3103448,2.00196995 19.3103448,3.62060707 L19.3103448,3.62060707 Z" id="Path"></path>
                    <path d="M16.3793103,7.24137931 C14.38242,7.24137931 12.7586207,5.61745138 12.7586207,3.62060677 C12.7586207,1.62392793 14.38242,0 16.3793103,0 C18.3762007,0 20,1.62392793 20,3.62060677 C20,5.61745138 18.3762007,7.24137931 16.3793103,7.24137931 Z M16.3793103,1.35774826 C15.1310881,1.35774826 14.1164,2.3734076 14.1164,3.62060677 C14.1164,4.86797171 15.1310881,5.88363105 16.3793103,5.88363105 C17.6275326,5.88363105 18.6422207,4.86797171 18.6422207,3.62060677 C18.6422207,2.3734076 17.6275326,1.35774826 16.3793103,1.35774826 Z" id="Shape"></path>
                    <path d="M19.3103448,18.1035309 C19.3103448,19.722168 17.9981582,21.0344828 16.3793103,21.0344828 C14.7604624,21.0344828 13.4482759,19.722168 13.4482759,18.1035309 C13.4482759,16.4847286 14.7604624,15.1724138 16.3793103,15.1724138 C17.9981582,15.1724138 19.3103448,16.4847286 19.3103448,18.1035309 L19.3103448,18.1035309 Z" id="Path"></path>
                    <path d="M16.3793103,21.7241379 C14.38242,21.7241379 12.7586207,20.10021 12.7586207,18.1035312 C12.7586207,16.1066866 14.38242,14.4827586 16.3793103,14.4827586 C18.3762007,14.4827586 20,16.1066866 20,18.1035312 C20,20.10021 18.3762007,21.7241379 16.3793103,21.7241379 Z M16.3793103,15.8405069 C15.1310881,15.8405069 14.1164,16.8561662 14.1164,18.1035312 C14.1164,19.3507303 15.1310881,20.3663897 16.3793103,20.3663897 C17.6275326,20.3663897 18.6422207,19.3507303 18.6422207,18.1035312 C18.6422207,16.8561662 17.6275326,15.8405069 16.3793103,15.8405069 L16.3793103,15.8405069 Z" id="Shape"></path>
                    <path d="M6.55172414,10.862069 C6.55172414,12.4809169 5.23940936,13.7931034 3.62060707,13.7931034 C2.00196995,13.7931034 0.689655172,12.4809169 0.689655172,10.862069 C0.689655172,9.24322107 2.00196995,7.93103448 3.62060707,7.93103448 C5.23940936,7.93103448 6.55172414,9.24322107 6.55172414,10.862069 Z" id="Path"></path>
                    <path d="M3.62060677,14.4827586 C1.62392793,14.4827586 0,12.8589593 0,10.862069 C0,8.86517864 1.62392793,7.24137931 3.62060677,7.24137931 C5.61745138,7.24137931 7.24137931,8.86517864 7.24137931,10.862069 C7.24137931,12.8589593 5.61745138,14.4827586 3.62060677,14.4827586 Z M3.62060677,8.59915865 C2.37241314,8.59915865 1.35774826,9.61467547 1.35774826,10.862069 C1.35774826,12.1094625 2.37241314,13.1249793 3.62060677,13.1249793 C4.86896613,13.1249793 5.88363105,12.1094625 5.88363105,10.862069 C5.88363105,9.61467547 4.86896613,8.59915865 3.62060677,8.59915865 Z" id="Shape"></path>
                    <path d="M5.73038742,10.3448276 C5.41645035,10.3448276 5.11159612,10.1821042 4.94562729,9.89104485 C4.69939887,9.46062585 4.85100029,8.91157839 5.2830147,8.66527212 L13.6516426,3.91190635 C14.083657,3.66477742 14.6347397,3.81581893 14.8819589,4.24788328 C15.1281873,4.67830227 14.9765859,5.22734974 14.5445715,5.47365601 L6.17577842,10.2270218 C6.03507648,10.3069849 5.88182366,10.3448276 5.73038742,10.3448276 Z" id="Path"></path>
                    <path d="M14.0973155,17.9310345 C13.9457129,17.9310345 13.7924588,17.8931908 13.6517557,17.8132255 L5.28289429,13.0597316 C4.85087634,12.8144059 4.69943886,12.2653436 4.94566924,11.8339258 C5.19090882,11.4026726 5.74282164,11.2508043 6.17583048,11.4979398 L14.5446919,16.2514337 C14.9767099,16.4967594 15.1281474,17.0458217 14.8819169,17.4772395 C14.715121,17.7683067 14.4102643,17.9310345 14.0973155,17.9310345 L14.0973155,17.9310345 Z" id="Path"></path>
                </g>
            </g>
        </g>
    </g>
</svg>