<?xml version="1.0" encoding="UTF-8"?>
<svg width="80px" height="60px" viewBox="0 0 80 60" version="1.1" xmlns="http://www.w3.org/2000/svg" xmlns:xlink="http://www.w3.org/1999/xlink">
    <!-- Generator: Sketch 64 (93537) - https://sketch.com -->
    <title>Group 19</title>
    <desc>Created with Sketch.</desc>
    <g id="Styleguide" stroke="none" stroke-width="1" fill="none" fill-rule="evenodd">
        <g id="Software-Development_Mobile-App" transform="translate(-140.000000, -921.000000)">
            <g id="Group-19" transform="translate(140.000000, 921.000000)">
                <circle id="Oval" fill="#36C2E1" opacity="0.200000003" cx="30" cy="30" r="30"></circle>
                <g id="fast-time" transform="translate(20.000000, 9.000000)" fill="#000000" fill-rule="nonzero">
                    <path d="M4.50586333,9.96644295 L13.6759549,9.96644295 C14.1561506,9.96644295 14.5454545,9.56089933 14.5454545,9.06040268 C14.5454545,8.55990604 14.1561506,8.15436242 13.6759549,8.15436242 L4.50586333,8.15436242 C4.02566763,8.15436242 3.63636364,8.55990604 3.63636364,9.06040268 C3.63636364,9.56089933 4.0255517,9.96644295 4.50586333,9.96644295 Z" id="Path"></path>
                    <path d="M13.6608572,14.1946309 L9.97550648,14.1946309 C9.48697283,14.1946309 9.09090909,14.6001745 9.09090909,15.1006711 C9.09090909,15.6011678 9.48697283,16.0067114 9.97550648,16.0067114 L13.6608572,16.0067114 C14.1493908,16.0067114 14.5454545,15.6011678 14.5454545,15.1006711 C14.5454545,14.6001745 14.1493908,14.1946309 13.6608572,14.1946309 Z" id="Path"></path>
                    <path d="M0.869235232,20.2348993 L9.73682537,20.2348993 C10.216875,20.2348993 10.6060606,19.8293557 10.6060606,19.3288591 C10.6060606,18.8283624 10.216875,18.4228188 9.73682537,18.4228188 L0.869235232,18.4228188 C0.389185588,18.4228188 0,18.8283624 0,19.3288591 C0,19.8293557 0.389185588,20.2348993 0.869235232,20.2348993 Z" id="Path"></path>
                    <path d="M14.5454545,35.9395973 C14.5454545,35.4391007 14.1561506,35.033557 13.6759549,35.033557 L4.50586333,35.033557 C4.02566763,35.033557 3.63636364,35.4391007 3.63636364,35.9395973 C3.63636364,36.440094 4.02566763,36.8456376 4.50586333,36.8456376 L13.6759549,36.8456376 C14.1561506,36.8456376 14.5454545,36.440094 14.5454545,35.9395973 Z" id="Path"></path>
                    <path d="M13.6608572,28.9932886 L9.97550648,28.9932886 C9.48697283,28.9932886 9.09090909,29.3988322 9.09090909,29.8993289 C9.09090909,30.3998255 9.48697283,30.8053691 9.97550648,30.8053691 L13.6608572,30.8053691 C14.1493908,30.8053691 14.5454545,30.3998255 14.5454545,29.8993289 C14.5454545,29.3988322 14.1493908,28.9932886 13.6608572,28.9932886 Z" id="Path"></path>
                    <path d="M10.6060606,25.6711409 C10.6060606,25.1706443 10.216875,24.7651007 9.73682537,24.7651007 L0.869235232,24.7651007 C0.389185588,24.7651007 0,25.1706443 0,25.6711409 C0,26.1716376 0.389185588,26.5771812 0.869235232,26.5771812 L9.73682537,26.5771812 C10.216875,26.5771812 10.6060606,26.1716376 10.6060606,25.6711409 Z" id="Path"></path>
                    <path d="M37.5757576,12.0805369 C38.0779394,12.0805369 38.4848485,11.6971964 38.4848485,11.2241014 L38.4848485,9.91683821 C38.4848485,9.44374322 38.0779394,9.06040268 37.5757576,9.06040268 C37.0735758,9.06040268 36.6666667,9.44374322 36.6666667,9.91683821 L36.6666667,11.2241014 C36.6666667,11.6971964 37.0735758,12.0805369 37.5757576,12.0805369 Z" id="Path"></path>
                    <path d="M47.0134003,12.9430247 C46.6673949,12.5984101 46.1067008,12.5984101 45.7608134,12.9430247 L44.8048701,13.8957756 C44.4589827,14.2406256 44.4589827,14.7994473 44.8048701,15.1441795 C45.1509936,15.4889118 45.7115696,15.4887941 46.057457,15.1441795 L47.0134003,14.1914286 C47.3591696,13.8466963 47.3591696,13.2878746 47.0134003,12.9430247 Z" id="Path"></path>
                    <path d="M49.0411698,21.7449664 C48.566464,21.7449664 48.1818182,22.1505101 48.1818182,22.6510067 C48.1818182,23.1515034 48.566464,23.557047 49.0411698,23.557047 L50.3527696,23.557047 C50.8274754,23.557047 51.2121212,23.1515034 51.2121212,22.6510067 C51.2121212,22.1505101 50.8274754,21.7449664 50.3527696,21.7449664 L49.0411698,21.7449664 Z" id="Path"></path>
                    <path d="M46.0574079,29.8557764 C45.7114137,29.5111618 45.1507377,29.5111618 44.8048616,29.8557764 C44.4589855,30.2006263 44.4589855,30.759448 44.8048616,31.1041802 L45.7607739,32.0569312 C46.1068862,32.4016634 46.6674441,32.4015457 47.0133202,32.0569312 C47.3591963,31.7120812 47.3591963,31.1532596 47.0133202,30.8085273 L46.0574079,29.8557764 Z" id="Path"></path>
                    <path d="M36.6666667,33.775931 L36.6666667,35.0831294 C36.6666667,35.5562423 37.0735758,35.9395973 37.5757576,35.9395973 C38.0779394,35.9395973 38.4848485,35.5562423 38.4848485,35.0831294 L38.4848485,33.775931 C38.4848485,33.3028181 38.0779394,32.9194631 37.5757576,32.9194631 C37.0735758,32.9194631 36.6666667,33.3029323 36.6666667,33.775931 Z" id="Path"></path>
                    <path d="M28.7911296,29.8557764 L27.8351759,30.8085273 C27.4892848,31.1533773 27.4892848,31.7121989 27.8351759,32.0569312 C28.1811851,32.4016634 28.7418853,32.4015457 29.0876583,32.0569312 L30.043612,31.1041802 C30.3895031,30.7593303 30.3895031,30.2005086 30.043612,29.8557764 C29.697839,29.5111618 29.1370207,29.5111618 28.7911296,29.8557764 Z" id="Path"></path>
                    <path d="M24.7987131,21.7449664 C24.3241398,21.7449664 23.9393939,22.1505101 23.9393939,22.6510067 C23.9393939,23.1515034 24.3241398,23.557047 24.7987131,23.557047 L26.1103778,23.557047 C26.5849511,23.557047 26.969697,23.1515034 26.969697,22.6510067 C26.969697,22.1505101 26.5849511,21.7449664 26.1103778,21.7449664 L24.7987131,21.7449664 Z" id="Path"></path>
                    <path d="M30.043612,13.8957756 L29.0876583,12.9430247 C28.7417672,12.5984101 28.1809489,12.5984101 27.8351759,12.9430247 C27.4892848,13.2878746 27.4892848,13.8466963 27.8351759,14.1914286 L28.7911296,15.1441795 C29.1371388,15.4889118 29.697839,15.4887941 30.043612,15.1441795 C30.3895031,14.7994473 30.3895031,14.2406256 30.043612,13.8957756 Z" id="Path"></path>
                    <path d="M42.1212121,22.3858913 C42.1212121,21.9057771 41.738379,21.516749 41.2659102,21.516749 L38.3772705,21.516749 L38.3772705,15.0637732 C38.3772705,14.583659 37.9944374,14.1946309 37.5219686,14.1946309 C37.0494998,14.1946309 36.6666667,14.583659 36.6666667,15.0637732 L36.6666667,22.3858913 C36.6666667,22.8660055 37.0494998,23.2550336 37.5219686,23.2550336 L41.2659102,23.2550336 C41.7382649,23.2550336 42.1212121,22.8660055 42.1212121,22.3858913 Z" id="Path"></path>
                    <path d="M54.3225797,22.3561683 C54.8090452,22.3270188 55.1793942,21.9141632 55.1498651,21.4340663 C54.5885769,12.2939908 46.8761876,5.13422819 37.5918147,5.13422819 C27.8916816,5.13422819 20,12.924481 20,22.5000581 C20,32.075519 27.8916816,39.8657718 37.5918147,39.8657718 C46.2821938,39.8657718 53.6975275,33.5803803 54.9875139,25.098551 C55.0598661,24.6228671 54.7278696,24.1793523 54.2458747,24.10793 C53.7651738,24.03674 53.314708,24.3641211 53.2423558,24.8400372 C52.0835445,32.4600379 45.4182029,38.1238815 37.5918147,38.1238815 C28.8647302,38.1238815 21.7646873,31.1150928 21.7646873,22.5001742 C21.7646873,13.8852556 28.8647302,6.87635076 37.5918147,6.87635076 C45.9447856,6.87635076 52.8834184,13.3172453 53.3883543,21.539748 C53.4177657,22.0196127 53.8356437,22.3840404 54.3225797,22.3561683 L54.3225797,22.3561683 Z" id="Path"></path>
                    <path d="M37.4310623,0 C34.3376714,0 31.3068963,0.639797684 28.5173216,1.83627663 L13.0006493,1.83627663 C12.5149655,1.83627663 12.1212121,2.22871238 12.1212121,2.71303209 C12.1212121,3.19735181 12.5149655,3.58978755 13.0006493,3.58978755 L25.2087617,3.58978755 C23.5581167,4.64890815 22.0385665,5.9263993 20.6987733,7.40121888 C20.3727953,7.75998722 20.4002337,8.31444737 20.7602167,8.6395483 C21.1203169,8.96464922 21.6762384,8.93717755 22.002451,8.57829231 C25.9425641,4.24104151 31.5661544,1.75351092 37.4310623,1.75351092 C48.9057241,1.75351092 58.2411256,11.0603286 58.2411256,22.5 C58.2411256,33.9395545 48.9058414,43.2464891 37.4310623,43.2464891 C25.9564005,43.2464891 16.6211163,33.9396714 16.6211163,22.5 C16.6211163,18.4940459 17.7689577,14.6059276 19.9403467,11.2557866 C20.2039433,10.849089 20.0869196,10.3064358 19.678978,10.0436429 C19.2710364,9.780967 18.7267234,9.89740013 18.4630095,10.3042147 C16.1072904,13.9384245 14.8622419,18.1556182 14.8622419,22.5 C14.8622419,30.4218947 18.9904373,37.399933 25.2143901,41.4102124 L13.0007666,41.4102124 C12.5150827,41.4102124 12.1212121,41.8026482 12.1212121,42.2869679 C12.1212121,42.7712876 12.5150827,43.1637234 13.0007666,43.1637234 L28.505244,43.1637234 C31.2443977,44.3443038 34.2622743,45 37.4311796,45 C49.8755674,45 60,34.9065574 60,22.5 C60,10.0934426 49.8755674,0 37.4310623,0 Z" id="Path"></path>
                </g>
            </g>
        </g>
    </g>
</svg>