<?xml version="1.0" encoding="UTF-8"?>
<svg width="80px" height="68px" viewBox="0 0 80 68" version="1.1" xmlns="http://www.w3.org/2000/svg" xmlns:xlink="http://www.w3.org/1999/xlink">
    <!-- Generator: Sketch 64 (93537) - https://sketch.com -->
    <title>Group 4</title>
    <desc>Created with Sketch.</desc>
    <g id="Styleguide" stroke="none" stroke-width="1" fill="none" fill-rule="evenodd">
        <g id="Blockchain" transform="translate(-859.000000, -853.000000)">
            <g id="Group-4" transform="translate(859.000000, 853.000000)">
                <path d="M76.5460526,35.4490992 L76.5460526,23.3163329 C78.5175658,22.8933825 80,21.1428154 80,19.0528549 C80,15.6001563 76.1574836,13.5386603 73.2748191,15.3770312 L64.5753618,6.70442419 C66.42,3.82962384 64.3505099,0 60.8881579,0 C56.6219572,0 54.871727,5.51281732 58.4055757,7.95009066 L54.5079112,17.3620862 L47.8733388,10.7479909 L54.7645395,7.8929321 C55.2342763,7.6982716 55.4568257,7.16088927 55.2615625,6.69260224 C55.0662993,6.2243152 54.5273684,6.00245274 54.0575164,6.19711323 L46.4640132,9.34312982 L43.8383224,6.72531346 C45.7020724,3.85659626 43.6427138,0 40.1644737,0 C36.7010855,0 34.6332072,3.83065683 36.4772697,6.70442419 L27.7779276,15.3770313 C24.8941118,13.5380864 21.0526316,15.6011892 21.0526316,19.0528549 C21.0526316,21.7709857 23.5296875,23.8331703 26.218125,23.3416985 L28.736398,29.382716 L26.2180099,35.4237336 C23.5341776,34.93318 21.0526316,36.9903144 21.0526316,39.7125772 C21.0526316,43.1652758 24.895148,45.2267718 27.7778125,43.3884008 L36.4772697,52.0608931 C34.6325164,54.9356935 36.7021217,58.7654321 40.1644737,58.7654321 C42.2609046,58.7654321 44.0167763,57.2875733 44.4410362,55.3221451 L56.6114803,55.3221451 C57.0357401,57.2875733 58.791727,58.7654321 60.8880428,58.7654321 C63.3003947,58.7654321 65.2630428,56.8088416 65.2630428,54.4039352 C65.2630428,51.9990287 63.3003947,50.0424383 60.8880428,50.0424383 C58.7916118,50.0424383 57.0357401,51.5202971 56.6114803,53.4857253 L44.7810197,53.4857253 L72.031398,42.1958758 C74.4933717,45.7260484 80,43.9316368 80,39.7125772 C80,37.6226167 78.5175658,35.8721644 76.5460526,35.4490992 L76.5460526,35.4490992 Z M71.3211513,19.8308083 L68.7717928,20.8800926 L63.4969243,8.22647184 L71.9647368,16.6680343 C71.3685855,17.5743075 71.114375,18.6924576 71.3211513,19.8308083 Z M72.0254112,21.5277749 C72.6481579,22.4250955 73.5990296,23.0792052 74.7039474,23.3163329 L74.7039474,35.1105093 L69.4787007,22.5760262 L72.0254112,21.5277749 Z M72.9918257,35.7889516 L62.5841612,25.4134095 L67.7759046,23.2767351 L72.9918257,35.7889516 Z M78.1578947,19.0528549 C78.1578947,20.4452054 77.0216612,21.5779321 75.625,21.5779321 C74.2283388,21.5779321 73.0921053,20.4452054 73.0921053,19.0528549 C73.0921053,17.6605044 74.2283388,16.5277778 75.625,16.5277778 C77.0216612,16.5277778 78.1578947,17.6605044 78.1578947,19.0528549 Z M60.8881579,1.83641975 C62.2848191,1.83641975 63.4210526,2.96914641 63.4210526,4.36149691 C63.4210526,5.75384742 62.2848191,6.88657407 60.8881579,6.88657407 C59.4914967,6.88657407 58.3552632,5.75384742 58.3552632,4.36149691 C58.3552632,2.96914641 59.4914967,1.83641975 60.8881579,1.83641975 Z M60.1077961,8.65206211 C60.6306086,8.74640818 61.1476645,8.74732639 61.6786513,8.65022569 L67.0689967,21.5808015 L61.1736842,24.0071711 L55.9185033,18.7680951 L60.1077961,8.65206211 Z M59.3296217,24.7661863 L52.2233553,27.6909144 L55.1571382,20.6065808 L59.3296217,24.7661863 Z M39.3740954,8.65034047 C40.4891447,8.85406829 41.6091447,8.62210552 42.5356086,8.02400656 L44.6236349,10.1055883 L37.5448849,13.0383507 L39.3740954,8.65034047 Z M35.1334539,14.037363 L29.3046875,16.452255 L37.5558224,8.22647184 L35.1334539,14.037363 Z M40.1644737,1.83641975 C41.5611349,1.83641975 42.6973684,2.96914641 42.6973684,4.36149691 C42.6973684,5.75384742 41.5611349,6.88657407 40.1644737,6.88657407 C38.7678125,6.88657407 37.6315789,5.75384742 37.6315789,4.36149691 C37.6315789,2.96914641 38.7678125,1.83641975 40.1644737,1.83641975 Z M22.8947368,19.0528549 C22.8947368,17.6605044 24.0309704,16.5277778 25.4276316,16.5277778 C26.8242928,16.5277778 27.9605263,17.6605044 27.9605263,19.0528549 C27.9605263,20.4452054 26.8242928,21.5779321 25.4276316,21.5779321 C24.0309704,21.5779321 22.8947368,20.4452054 22.8947368,19.0528549 Z M27.9186184,22.6353655 C29.3193092,21.6644734 30.0440625,19.9735899 29.7297533,18.2648013 L34.1313487,16.4412365 L29.733898,26.9899759 L27.9186184,22.6353655 Z M29.733898,31.7754562 L31.5740461,36.1895206 L29.0273355,37.2376572 C28.7274178,36.8055247 28.351398,36.4299769 27.9186184,36.1300666 L29.733898,31.7754562 Z M29.7314803,38.9345091 L32.2808388,37.8853395 L37.5558224,50.5389603 L29.0878947,42.0973978 C29.6827796,41.192961 29.938602,40.0752701 29.7314803,38.9345091 L29.7314803,38.9345091 Z M22.8947368,39.7125772 C22.8947368,38.3202267 24.0309704,37.1875 25.4276316,37.1875 C26.8242928,37.1875 27.9605263,38.3202267 27.9605263,39.7125772 C27.9605263,41.1049277 26.8242928,42.2376543 25.4276316,42.2376543 C24.0309704,42.2376543 22.8947368,41.1049277 22.8947368,39.7125772 Z M40.1644737,56.9290123 C38.7678125,56.9290123 37.6315789,55.7962857 37.6315789,54.4039352 C37.6315789,53.0115847 38.7678125,51.878858 40.1644737,51.878858 C41.5611349,51.878858 42.6973684,53.0115847 42.6973684,54.4039352 C42.6973684,55.7962857 41.5611349,56.9290123 40.1644737,56.9290123 Z M60.8881579,51.878858 C62.2848191,51.878858 63.4210526,53.0115847 63.4210526,54.4039352 C63.4210526,55.7962857 62.2848191,56.9290123 60.8881579,56.9290123 C59.4914967,56.9290123 58.3552632,55.7962857 58.3552632,54.4039352 C58.3552632,53.0115847 59.4914967,51.878858 60.8881579,51.878858 Z M43.7581908,51.9207514 C42.7861349,50.5269088 41.0916283,49.8014082 39.3740954,50.1150916 L33.9836349,37.1845158 L37.5730921,35.7072309 C38.0432895,35.5137182 38.2671053,34.9769097 38.0729934,34.5081636 C37.8788816,34.0393027 37.3402961,33.8164072 36.8702138,34.0098052 L33.2768421,35.488697 L30.7312829,29.382716 L36.5426645,15.4422242 L46.0328454,11.5104495 L53.7465461,19.2003424 L49.8209046,28.6795968 L43.5587829,31.2568972 C43.0885855,31.4504099 42.8647697,31.9872184 43.0588816,32.4559645 C43.2539145,32.9271209 43.7937664,33.1469174 44.2616612,32.9543229 L48.8290461,31.0745177 L42.2582566,46.9412992 C42.0073849,47.5468586 42.4567434,48.2101505 43.1093092,48.2101505 C43.4711678,48.2101505 43.814375,47.9962076 43.9609375,47.6421229 L51.2313816,30.0858353 L60.7399836,26.17231 L71.9509211,37.3486458 C71.3516612,38.2711024 71.1179441,39.3876456 71.322648,40.500516 L43.7581908,51.9207514 Z M75.625,42.2376543 C74.2283388,42.2376543 73.0921053,41.1049277 73.0921053,39.7125772 C73.0921053,38.3202267 74.2283388,37.1875 75.625,37.1875 C77.0216612,37.1875 78.1578947,38.3202267 78.1578947,39.7125772 C78.1578947,41.1049277 77.0216612,42.2376543 75.625,42.2376543 Z" id="Shape" fill="#000000" fill-rule="nonzero"></path>
                <path d="M39.9079698,32.8739923 C39.4917327,33.0445485 39.32925,33.4959088 39.4826055,33.8706949 C39.6421409,34.260225 40.0866152,34.4455253 40.4748053,34.2864791 C40.8910424,34.1159229 41.0535251,33.6645625 40.9001696,33.2897765 C40.7409194,32.9010074 40.2967303,32.7147558 39.9079698,32.8739923 Z" id="Path" fill="#000000" fill-rule="nonzero"></path>
                <ellipse id="Oval-Copy-5" fill="#36C2E1" opacity="0.200000003" cx="32.4210526" cy="35.6790123" rx="32.4210526" ry="32.3209877"></ellipse>
            </g>
        </g>
    </g>
</svg>