<?xml version="1.0" encoding="UTF-8"?>
<svg width="80px" height="66px" viewBox="0 0 80 66" version="1.1" xmlns="http://www.w3.org/2000/svg" xmlns:xlink="http://www.w3.org/1999/xlink">
    <!-- Generator: Sketch 64 (93537) - https://sketch.com -->
    <title>Group 2</title>
    <desc>Created with Sketch.</desc>
    <g id="Styleguide" stroke="none" stroke-width="1" fill="none" fill-rule="evenodd">
        <g id="Blockchain" transform="translate(-500.000000, -1164.000000)">
            <g id="Group-2" transform="translate(500.000000, 1164.000000)">
                <ellipse id="Oval-Copy-4" fill="#36C2E1" opacity="0.200000003" cx="31.4285714" cy="34.6296296" rx="31.4285714" ry="31.3703704"></ellipse>
                <path d="M49.1118864,43.1851852 C41.8368701,43.1851852 35.9183673,37.5122068 35.9183673,30.5392557 C35.9183673,28.5773197 36.3745788,26.6964673 37.2743811,24.9490376 C37.5050484,24.5008621 38.0709705,24.3170166 38.5389277,24.5379904 C39.00651,24.7592038 39.1984412,25.3018771 38.9677739,25.7500527 C38.1973002,27.246207 37.8066902,28.8575792 37.8066902,30.5392557 C37.8066902,36.5142915 42.8782467,41.3753558 49.1120114,41.3753558 C49.5356095,41.3753558 49.9620815,41.3527195 50.3796818,41.3081654 C50.8986207,41.2527124 51.3648285,41.6105822 51.4226828,42.1072642 C51.4804121,42.6039462 51.1071709,43.051523 50.5889817,43.1068563 C50.1019064,43.1587162 49.6050845,43.1851852 49.1118864,43.1851852 L49.1118864,43.1851852 Z" id="Path" fill="#000000" fill-rule="nonzero"></path>
                <path d="M54.4169354,41.5555556 C54.0724917,41.5555556 53.739799,41.3747869 53.5694725,41.0590524 C53.32586,40.6070086 53.5073058,40.0496792 53.9749456,39.8141913 C57.7724185,37.9010969 60.1313397,34.1434291 60.1313397,30.0076127 C60.1313397,23.9142426 55.0029698,18.9569059 48.6993721,18.9569059 C45.7411491,18.9569059 42.9351839,20.04506 40.7983947,22.0210571 C40.417308,22.3733117 39.8129521,22.3603648 39.4485443,21.9919876 C39.0840102,21.6237324 39.0974038,21.039532 39.4784905,20.6871553 C41.9724852,18.3811332 45.2471011,17.1111111 48.6993721,17.1111111 C56.0558859,17.1111111 62.0408163,22.8964416 62.0408163,30.0076127 C62.0408163,34.83377 59.2881729,39.2186318 54.8572825,41.4508807 C54.716523,41.5219668 54.5656552,41.5555556 54.4169354,41.5555556 Z" id="Path" fill="#000000" fill-rule="nonzero"></path>
                <path d="M54.6938776,33.3828198 C54.6938776,32.1145311 54.0398651,30.9947287 53.0479525,30.3352826 C53.4991501,29.7759354 53.7696944,29.0682252 53.7696944,28.2988304 C53.7696944,27.1355656 53.1521612,26.112907 52.2248655,25.5325058 L52.2248655,23.7451312 C52.2248655,23.2313395 51.8037975,22.8148148 51.2841235,22.8148148 C50.7644494,22.8148148 50.3433814,23.2313395 50.3433814,23.7451312 L50.3433814,25.0267171 L49.2897155,25.0267171 L49.2897155,23.7451312 C49.2897155,23.2313395 48.868523,22.8148148 48.3489735,22.8148148 C47.8294239,22.8148148 47.4082314,23.2313395 47.4082314,23.7451312 L47.4082314,25.0297952 C46.9183135,25.0620534 46.5306122,25.4641726 46.5306122,25.9569104 L46.5306122,36.1342465 C46.5306122,36.3817234 46.6303389,36.6189812 46.8076306,36.7934463 C46.9689861,36.9522748 47.1825081,37.0463406 47.4082314,37.0613616 L47.4082314,38.1807947 C47.4082314,38.6945865 47.8294239,39.1111111 48.3489735,39.1111111 C48.868523,39.1111111 49.2897155,38.6945865 49.2897155,38.1807947 L49.2897155,37.0570523 C49.6588658,37.055698 50.0292612,37.0543436 50.3433814,37.0534818 L50.3433814,38.1806716 C50.3433814,38.6944633 50.7644494,39.1111111 51.2841235,39.1111111 C51.8037975,39.1111111 52.2248655,38.6944633 52.2248655,38.1806716 L52.2248655,36.840233 C53.6621241,36.334198 54.6938776,34.9756603 54.6938776,33.3828198 L54.6938776,33.3828198 Z M48.4123453,29.7131428 L48.4123453,26.8873499 L50.4610364,26.8873499 C51.2480177,26.8873499 51.8883348,27.5205708 51.8883348,28.2988304 C51.8883348,29.07709 51.2480177,29.7103109 50.4610364,29.7103109 C50.2420363,29.710434 48.4123453,29.7131428 48.4123453,29.7131428 L48.4123453,29.7131428 Z M50.9832005,35.1919872 C50.5143236,35.1919872 49.2848599,35.1965427 48.4123453,35.2001133 L48.4123453,31.5773461 L50.9832005,31.5736524 C51.991921,31.5736524 52.812518,32.3852783 52.812518,33.3828198 C52.812518,34.3803612 51.991921,35.1919872 50.9832005,35.1919872 L50.9832005,35.1919872 Z" id="Shape" fill="#000000" fill-rule="nonzero"></path>
                <path d="M78.5001719,20.3703704 L62.7243178,20.3703704 C61.8972797,20.3703704 61.2244898,19.6509968 61.2244898,18.7666949 C61.2244898,14.9026968 63.5465768,11.4897924 66.8834045,10.2426738 C66.6774216,9.88215657 66.5168409,9.49276736 66.407756,9.0847263 C65.705813,8.68626667 65.2263412,7.76977119 65.1656455,6.88904637 C65.1227524,6.2670201 65.3071095,5.7081035 65.6845457,5.31552047 C65.8423783,5.15148643 66.029125,5.020157 66.2389312,4.92421497 L66.2389312,4.26156345 C66.2389312,1.91181417 68.0268247,0 70.224414,0 L71.0488235,0 C73.2464128,0 75.0344257,1.91168641 75.0344257,4.26156345 L75.0344257,4.9501487 C75.7191636,5.29099202 76.1196594,6.0079383 76.0589637,6.88891862 C76.001494,7.72352483 75.5565518,8.63107764 74.874084,9.05151068 C74.7633264,9.4762873 74.5967718,9.88215657 74.3815889,10.2562155 C77.7039596,11.511127 80,14.8913269 80,18.7666949 C80,19.6509968 79.3272101,20.3703704 78.5001719,20.3703704 Z M63.0369961,18.4399044 L78.1876132,18.4399044 C78.0490168,15.1815802 75.8479627,12.4313273 72.8407793,11.8029134 C72.4944078,11.8431554 72.0303489,11.6774606 71.8047713,11.1361738 C71.6836189,10.7357979 71.8188699,10.2976073 72.1391948,10.0530892 C72.716401,9.61259908 73.1037541,8.93295649 73.2024442,8.18841569 C73.259914,7.75380214 73.5834648,7.41832443 73.9859918,7.3655627 C74.0806197,7.28699499 74.240364,7.01015562 74.2584054,6.74711349 C74.2599586,6.72411807 74.2600781,6.70623274 74.2594807,6.69256323 C74.2335536,6.68323731 74.1912578,6.67263386 74.131518,6.66790703 C73.7574272,6.66036964 73.2605114,6.35785203 73.2289687,5.70312115 L73.2289687,4.26156345 C73.2289687,2.97624689 72.2510278,1.93059377 71.0488235,1.93059377 L70.224414,1.93059377 C69.0224487,1.93059377 68.0443882,2.97624689 68.0443882,4.26156345 L68.0443882,5.70503744 C68.0354273,6.11627231 67.7247802,6.67276162 67.0865199,6.66841804 C67.030245,6.67340038 66.9900998,6.68362057 66.965248,6.69256323 C66.9646506,6.70623274 66.9647701,6.72424582 66.9663234,6.74711349 C66.9842453,7.00542878 67.1382546,7.27690256 67.2333604,7.36096362 C67.6572742,7.38881363 68.010456,7.73195649 68.0710322,8.1889267 C68.1713951,8.94611498 68.5685455,9.63278395 69.1608061,10.0728909 C69.4838791,10.3130653 69.6242677,10.7493396 69.507775,11.1512486 C69.3943888,11.5762807 68.8397643,11.9221064 68.2452335,11.8334462 C65.3175042,12.5160271 63.1747561,15.2517163 63.0369961,18.4399044 L63.0369961,18.4399044 Z" id="Shape" fill="#000000" fill-rule="nonzero"></path>
                <path d="M34.4186492,20.3703704 L18.6426947,20.3703704 C17.8156513,20.3703704 17.1428571,19.6510013 17.1428571,18.766705 C17.1428571,14.8753923 19.4570732,11.4839715 22.8014494,10.241332 C22.5958236,9.88107258 22.4353614,9.49206907 22.3262758,9.08479708 C21.6243284,8.68646769 21.1446145,7.76985021 21.0839185,6.88900317 C21.0219082,5.98707712 21.4428376,5.25723242 22.1570915,4.92661137 L22.1570915,4.26153672 C22.1570915,1.91180218 23.9449964,0 26.1427191,0 L26.9671339,0 C29.1647371,0 30.9527615,1.91167443 30.9527615,4.26153672 L30.9527615,4.95011766 C31.6375037,5.29108659 32.038002,6.00790062 31.977306,6.88900317 C31.9198359,7.72347639 31.4748909,8.63102352 30.7924188,9.05145392 C30.6816604,9.47635562 30.5152242,9.8820946 30.299801,10.2561512 C33.6223123,11.5109271 35.9183673,14.8908502 35.9183673,18.7664495 C35.9183673,19.6510013 35.2456926,20.3703704 34.4186492,20.3703704 Z M18.9552555,18.4399165 L34.105969,18.4399165 C33.9672522,15.179952 31.7643919,12.4289498 28.7549193,11.8020729 C28.4037664,11.8322222 27.9631226,11.6886295 27.7251177,11.1316327 C27.6052788,10.7321535 27.7404111,10.2957542 28.0595433,10.0517487 C28.6354389,9.61138903 29.022197,8.93226171 29.1206489,8.18836434 C29.1782384,7.75388127 29.5016719,7.41840566 29.9042014,7.36564426 C29.9988299,7.28707705 30.1584557,7.0102394 30.1764972,6.74719893 C30.1780505,6.72420365 30.17817,6.70631843 30.1775726,6.69264901 C30.1516453,6.68332315 30.1093493,6.67259202 30.049609,6.66799296 C29.6779055,6.65598431 29.177402,6.35947293 29.147054,5.70321314 L29.147054,4.26166447 C29.147054,2.97635597 28.1691069,1.93070941 26.9670144,1.93070941 L26.1425996,1.93070941 C24.9405072,1.93070941 23.96256,2.97635597 23.96256,4.26166447 L23.96256,5.70512941 C23.9537185,6.11623395 23.6425915,6.67323077 23.0046856,6.66850397 C22.9484103,6.67348628 22.9083844,6.6837064 22.883413,6.69264901 C22.882935,6.70631843 22.882935,6.7243314 22.8844883,6.74719893 C22.9022909,7.00538484 23.0563011,7.27685692 23.151527,7.3610452 C23.575324,7.38889504 23.9285081,7.73203575 23.9890847,8.1890031 C24.087656,8.93238946 24.4744141,9.61126128 25.0500707,10.0516209 C25.3692029,10.2956264 25.5043353,10.7321535 25.3844964,11.1315049 C25.2646576,11.5309841 24.9172085,11.8019451 24.5248348,11.8019451 L24.3061857,11.8019451 C21.2968326,12.4288221 19.0939723,15.179952 18.9552555,18.4399165 L18.9552555,18.4399165 Z" id="Shape" fill="#000000" fill-rule="nonzero"></path>
                <path d="M78.5001719,55.4074074 L75.6306292,55.4074074 C75.1320406,55.4074074 74.7278409,54.9752212 74.7278409,54.4421105 C74.7278409,53.9089999 75.1319211,53.4768136 75.6306292,53.4768136 L78.1874937,53.4768136 C78.0494947,50.2803217 75.8994584,47.5427162 72.9622901,46.8665229 C72.5423192,46.9140468 72.0216269,46.7986864 71.7692858,46.1879024 C71.6518373,45.7858657 71.791748,45.3489526 72.1149405,45.1081394 C72.7058868,44.6679047 73.1022008,43.9817467 73.2023248,43.225325 C73.2597945,42.7908392 73.5833454,42.4553615 73.9857528,42.4025997 C74.0805002,42.3241598 74.2402445,42.0473204 74.2582859,41.7841505 C74.2598391,41.7611551 74.2599586,41.7432698 74.2593612,41.7296003 C74.2334341,41.7202743 74.1911384,41.7096709 74.1313985,41.7049441 C73.7573077,41.6974067 73.2603919,41.3948891 73.2288492,40.7401582 L73.2288492,39.2986005 C73.2288492,38.0132839 72.2509083,36.9676308 71.0487041,36.9676308 L70.2242945,36.9676308 C69.0223292,36.9676308 68.0442688,38.0132839 68.0442688,39.2986005 L68.0442688,40.7420745 C68.0353078,41.1533093 67.7246607,41.7097987 67.0864004,41.7054551 C67.0301255,41.7104374 66.9899803,41.7206576 66.9651286,41.7296003 C66.9645312,41.7432698 66.9646506,41.7612829 66.9662039,41.7841505 C66.9841258,42.0424658 67.1381351,42.3139396 67.2333604,42.3980007 C67.6571547,42.4258507 68.0102171,42.7689935 68.0709127,43.225836 C68.1703198,43.9756146 68.5619741,44.6581955 69.1453932,45.0984302 C69.4671519,45.3412874 69.6045535,45.7792225 69.4848349,46.1804927 C69.3888928,46.5488028 68.8748913,46.935637 68.3292277,46.8514482 C65.3533481,47.5014522 63.1751146,50.2459563 63.0368766,53.4766859 L71.1884953,53.4766859 C71.6870838,53.4766859 72.0912835,53.9088721 72.0912835,54.4419828 C72.0912835,54.9750934 71.6872033,55.4074074 71.1884953,55.4074074 L62.7243178,55.4074074 C61.8972797,55.4074074 61.2244898,54.6879061 61.2244898,53.8036042 C61.2244898,49.9232538 63.5420366,46.5235078 66.883285,45.2788165 C66.677541,44.9185548 66.5169604,44.5292934 66.4078755,44.1217633 C65.7059325,43.7233037 65.2263412,42.8068082 65.1656455,41.9260834 C65.1227524,41.3040571 65.3071095,40.7451405 65.6845457,40.3525575 C65.8423783,40.1883957 66.029125,40.057194 66.2389312,39.961252 L66.2389312,39.2986005 C66.2389312,36.9488512 68.0268247,35.037037 70.224414,35.037037 L71.0488235,35.037037 C73.2464128,35.037037 75.0344257,36.9487235 75.0344257,39.2986005 L75.0344257,39.9868025 C75.7186857,40.3273903 76.1196594,41.0445921 76.0589637,41.9259557 C76.001494,42.7604341 75.5566713,43.6679869 74.8742035,44.08842 C74.7634459,44.5142186 74.5967718,44.9202156 74.3812305,45.2945301 C77.6972687,46.5536574 80,49.9519981 80,53.8037319 C80,54.6880338 79.3272101,55.4074074 78.5001719,55.4074074 Z" id="Path" fill="#000000" fill-rule="nonzero"></path>
                <path d="M34.4186492,55.4074074 L18.6426947,55.4074074 C17.8156513,55.4074074 17.1428571,54.6880293 17.1428571,53.8037219 C17.1428571,49.9196423 19.4591044,46.5226856 22.8015689,45.278753 C22.5958236,44.9184891 22.4353614,44.5292252 22.3261563,44.1218203 C21.6242089,43.7233582 21.1444951,42.806857 21.0839185,41.9261266 C21.0219082,41.0241892 21.4429571,40.2943354 22.1570915,39.9637102 L22.1570915,39.2986272 C22.1570915,36.9488632 23.9449964,35.037037 26.1427191,35.037037 L26.9671339,35.037037 C29.1647371,35.037037 30.9527615,36.9487354 30.9527615,39.2986272 L30.9527615,39.9868335 C31.6371453,40.3274235 32.038002,41.0446298 31.977306,41.9261266 C31.9198359,42.7604826 31.4750103,43.6679133 30.7925382,44.0886045 C30.6817799,44.5145335 30.5152242,44.9205331 30.2995621,45.2948499 C33.6146655,46.5543684 35.9183673,49.955541 35.9183673,53.8038496 C35.9183673,54.6880293 35.2456926,55.4074074 34.4186492,55.4074074 L34.4186492,55.4074074 Z M18.955375,53.4769293 L34.105969,53.4769293 C33.9682081,50.2896155 31.8260438,47.5542924 28.8994906,46.8709407 C28.4734235,46.9171874 27.9371954,46.8135796 27.6823437,46.1901441 C27.5656113,45.7878494 27.7061203,45.351189 28.0296732,45.1108853 C28.6226545,44.6707757 29.0204048,43.9834636 29.1207683,43.2253763 C29.1782384,42.7908878 29.5017914,42.455408 29.9043209,42.4026459 C29.9989494,42.3242055 30.1585752,42.0473644 30.1767362,41.7841928 C30.1782894,41.7611973 30.1784089,41.7431841 30.1778115,41.7296422 C30.1518843,41.7203163 30.1095882,41.709585 30.049848,41.7049859 C29.6782639,41.6951489 29.1777605,41.3958232 29.147293,40.740194 L29.147293,39.2986272 C29.147293,38.0133026 28.1693458,36.9676429 26.9672534,36.9676429 L26.1428386,36.9676429 C24.9407462,36.9676429 23.962799,38.0133026 23.962799,39.2986272 L23.962799,40.7421103 C23.9537185,41.1532199 23.6433084,41.710096 23.0049245,41.7054969 C22.9486493,41.7104793 22.9086233,41.7206995 22.8836519,41.7296422 C22.883174,41.7433118 22.883174,41.761325 22.8847272,41.7841928 C22.9025298,42.0425098 23.0566596,42.3138575 23.151766,42.3980468 C23.575563,42.425897 23.9287471,42.769042 23.9893236,43.2258873 C24.0884924,43.9741376 24.4789544,44.6557008 25.060346,45.0959382 C25.3817484,45.339308 25.5185534,45.7775014 25.3982367,46.1785186 C25.273977,46.5495138 24.8436086,46.9193592 24.2655624,46.8476897 C21.2795079,47.4907991 19.0937333,50.2372367 18.955375,53.4769293 Z" id="Shape" fill="#000000" fill-rule="nonzero"></path>
                <path d="M48.6540336,54.5925926 C45.5520681,54.5925926 42.5444775,54.0213656 39.7147383,52.89474 C39.2701097,52.7177189 39.0640849,52.2394172 39.2548057,51.8264755 C39.4454105,51.4134262 39.9605304,51.222407 40.405043,51.3993205 C43.0153084,52.4385122 45.7906719,52.9654839 48.6540336,52.9654839 C51.4578024,52.9654839 54.1798336,52.4595092 56.7445348,51.4616655 C57.1904387,51.2881977 57.7040514,51.4833086 57.8909461,51.8976501 C58.0778408,52.3120993 57.8676422,52.7887858 57.4213905,52.9623613 C54.6411575,54.0440854 51.6914208,54.5925926 48.6540336,54.5925926 L48.6540336,54.5925926 Z" id="Path" fill="#000000" fill-rule="nonzero"></path>
                <path d="M71.8468168,33.4074074 C71.8291714,33.4074074 71.811526,33.4066716 71.7936789,33.4052 C71.3739196,33.3700034 71.0571087,32.9276551 71.0859463,32.4171212 C71.114784,31.9080589 71.1294045,31.3905347 71.1294045,30.8790196 C71.1294045,28.5393688 70.8307431,26.2343013 70.2415878,24.0278332 C70.1115159,23.5410907 70.3306215,23.0184157 70.7308197,22.8603379 C71.1312194,22.7023826 71.5607594,22.9686255 71.6906296,23.4554907 C72.329293,25.8471392 72.6530612,28.3447453 72.6530612,30.8790196 C72.6530612,31.4328441 72.6372308,31.9931683 72.606074,32.5444174 C72.5784463,33.0332448 72.2436875,33.4074074 71.8468168,33.4074074 Z" id="Path" fill="#000000" fill-rule="nonzero"></path>
                <path d="M25.3057099,33.4074074 C24.9126389,33.4074074 24.5796149,33.0455372 24.548837,32.5692531 C24.5096104,31.9638927 24.4897959,31.348437 24.4897959,30.7399518 C24.4897959,28.247963 24.8148741,25.7923896 25.4560787,23.4417357 C25.58613,22.9648506 26.0151085,22.7042945 26.4141138,22.8598109 C26.813119,23.0152072 27.0312795,23.5277865 26.9011275,24.0045514 C26.30961,26.1732487 26.0096771,28.4392939 26.0096771,30.7399518 C26.0096771,31.3019263 26.0279829,31.8702704 26.0641921,32.4292402 C26.0965792,32.9293205 25.7835708,33.3659444 25.3650528,33.404523 C25.3451377,33.4064459 25.3254238,33.4074074 25.3057099,33.4074074 Z" id="Path" fill="#000000" fill-rule="nonzero"></path>
                <path d="M37.6676006,11.4074074 C37.342234,11.4074074 37.0263645,11.2353983 36.8551708,10.9293142 C36.6022038,10.4773395 36.7605703,9.90410019 37.2087819,9.64913372 C40.8082885,7.60106886 44.9074387,6.51851852 49.0633246,6.51851852 C53.149771,6.51851852 57.1887321,7.56711479 60.7437136,9.55100272 C61.1940219,9.80223798 61.3569519,10.3741091 61.1078084,10.8283226 C60.8584182,11.2824116 60.2916785,11.4468339 59.8411235,11.1954743 C56.5618033,9.3653125 52.8348882,8.39793238 49.0633246,8.39793238 C45.2277484,8.39793238 41.4452077,9.39653035 38.1246925,11.2858941 C37.9800166,11.368354 37.8227602,11.4074074 37.6676006,11.4074074 L37.6676006,11.4074074 Z" id="Path" fill="#000000" fill-rule="nonzero"></path>
            </g>
        </g>
    </g>
</svg>