<?xml version="1.0" encoding="UTF-8"?>
<svg width="60px" height="60px" viewBox="0 0 60 60" version="1.1" xmlns="http://www.w3.org/2000/svg" xmlns:xlink="http://www.w3.org/1999/xlink">
    <!-- Generator: Sketch 64 (93537) - https://sketch.com -->
    <title>Group 5</title>
    <desc>Created with Sketch.</desc>
    <defs>
        <circle id="path-1" cx="20" cy="20" r="20"></circle>
        <filter x="-50.0%" y="-25.0%" width="200.0%" height="200.0%" filterUnits="objectBoundingBox" id="filter-2">
            <feOffset dx="0" dy="10" in="SourceAlpha" result="shadowOffsetOuter1"></feOffset>
            <feGaussianBlur stdDeviation="5" in="shadowOffsetOuter1" result="shadowBlurOuter1"></feGaussianBlur>
            <feColorMatrix values="0 0 0 0 1   0 0 0 0 1   0 0 0 0 1  0 0 0 0.143602491 0" type="matrix" in="shadowBlurOuter1"></feColorMatrix>
        </filter>
    </defs>
    <g id="Styleguide" stroke="none" stroke-width="1" fill="none" fill-rule="evenodd">
        <g id="Livestreaming" transform="translate(-646.000000, -2272.000000)">
            <g id="Group-5" transform="translate(656.000000, 2272.000000)">
                <g id="Oval">
                    <use fill="black" fill-opacity="1" filter="url(#filter-2)" xlink:href="#path-1"></use>
                    <use fill="#2BA1C3" fill-rule="evenodd" xlink:href="#path-1"></use>
                </g>
                <g id="live-streaming" transform="translate(10.000000, 9.000000)" fill="#FFFFFF" fill-rule="nonzero">
                    <path d="M10.8551223,5.78466828 C10.3049754,6.33468804 9.41333451,6.33468804 8.86318752,5.78466828 C8.31320979,5.23464853 8.31320979,4.34281626 8.86318752,3.7927965 C9.41333451,3.24277675 10.3049754,3.24277675 10.8551223,3.7927965 C11.4051001,4.34281626 11.4051001,5.23464853 10.8551223,5.78466828 Z" id="Path"></path>
                    <path d="M12.7526399,7.88732394 C12.5886151,7.88732394 12.4245904,7.82532083 12.2997115,7.70115431 C12.0499539,7.45346218 12.0504392,7.05212395 12.3005203,6.80491247 C12.8073148,6.30392063 13.086351,5.63790748 13.086351,4.92959765 C13.086351,4.22128781 12.8073148,3.5552747 12.3005203,3.05428286 C12.0504392,2.80691114 12.0499539,2.40573316 12.2997115,2.15788078 C12.5493074,1.91018864 12.9545165,1.90970799 13.2045977,2.15707971 C13.9537089,2.89759272 14.3661972,3.88211299 14.3661972,4.92959765 C14.3661972,5.97692214 13.9537089,6.96160257 13.2045977,7.70211562 C13.0797189,7.82564124 12.9161794,7.88732394 12.7526399,7.88732394 Z" id="Path"></path>
                    <path d="M14.1743985,9.85915493 C14.0069629,9.85915493 13.8395272,9.79579179 13.7120516,9.66906541 C13.4571003,9.41577643 13.4575956,9.00579867 13.7128772,8.75300088 C14.7449015,7.73165855 15.3134231,6.37385279 15.3134231,4.92959809 C15.3134231,3.48534339 14.7449015,2.12753767 13.7128772,1.10619529 C13.4575956,0.853397507 13.4571003,0.443419749 13.7120516,0.190130765 C13.9670029,-0.0629944595 14.3804731,-0.0634856574 14.6357547,0.189312129 C15.9151346,1.45542953 16.6198834,3.13889253 16.6197183,4.92959809 C16.6197183,6.72030369 15.9151346,8.40393036 14.6357547,9.67004781 C14.508279,9.79611922 14.3413387,9.85915493 14.1743985,9.85915493 Z" id="Path"></path>
                    <path d="M7.24752187,7.88732394 C7.08398237,7.88732394 6.92044287,7.82564186 6.7954023,7.7021175 C6.04629113,6.96161196 5.63380282,5.97694152 5.63380282,4.92962765 C5.63380282,3.88215362 6.04629113,2.89764333 6.7954023,2.15713784 C7.04548348,1.90976862 7.4506926,1.91008907 7.70028849,2.15793889 C7.95004613,2.40562856 7.94956084,2.80696267 7.69947966,3.05433188 C7.19268518,3.55531864 6.91364896,4.221325 6.91364896,4.92962765 C6.91364896,5.6379303 7.19268518,6.30393669 7.69947966,6.80492345 C7.94956084,7.05213242 7.95004613,7.45346658 7.70028849,7.7011562 C7.57540963,7.82516125 7.41138487,7.88732394 7.24752187,7.88732394 Z" id="Path"></path>
                    <path d="M5.82576664,9.85915493 C5.65866126,9.85915493 5.49172098,9.79611975 5.36424533,9.66988562 C4.08486537,8.40377873 3.38028169,6.72032975 3.38028169,4.92963902 C3.38028169,3.13878461 4.08486537,1.45533559 5.36424533,0.189228699 C5.61952686,-0.0634032716 6.03316226,-0.0630757951 6.2879484,0.190211045 C6.5428997,0.443334209 6.54240436,0.853308563 6.28712279,1.10610425 C5.25509845,2.1274381 4.68657686,3.48523259 4.68657686,4.9294753 C4.68657686,6.37371801 5.25509845,7.73167622 6.28712279,8.75301007 C6.54240436,9.00580576 6.5428997,9.41578011 6.2879484,9.66906699 C6.16047279,9.79579231 5.99303714,9.85915493 5.82576664,9.85915493 Z" id="Path"></path>
                    <path d="M18.4928004,10.9859155 L1.50736254,10.9859155 C0.674843638,10.9859155 0,11.6604432 0,12.4924095 L0,19.9017939 C0,20.733923 0.674843638,21.4084507 1.50736254,21.4084507 L18.4926375,21.4084507 C19.3251564,21.4084507 20,20.733923 20,19.9017939 L20,12.4924095 C20,11.6604432 19.3251564,10.9859155 18.4928004,10.9859155 Z M4.95683478,19.4753908 L2.58274694,19.4753908 C2.22700026,19.4753908 1.93852618,19.1870518 1.93852618,18.8313089 L1.93852618,13.5630573 C1.93852618,13.2074772 2.22700026,12.9189754 2.58274694,12.9189754 C2.93865649,12.9189754 3.22713057,13.2073144 3.22713057,13.5630573 L3.22713057,18.187227 L4.95683478,18.187227 C5.31274433,18.187227 5.60121841,18.4755659 5.60121841,18.8313089 C5.60121841,19.1870518 5.31274433,19.4753908 4.95683478,19.4753908 Z M7.59756973,18.8313089 C7.59756973,19.1870518 7.30909565,19.4753908 6.95318609,19.4753908 C6.59727654,19.4753908 6.30880246,19.1870518 6.30880246,18.8313089 L6.30880246,13.5630573 C6.30880246,13.2074772 6.59727654,12.9189754 6.95318609,12.9189754 C7.30909565,12.9189754 7.59756973,13.2073144 7.59756973,13.5630573 L7.59756973,18.8313089 Z M13.019123,13.7493135 L11.4278734,19.0174023 C11.4277104,19.0178908 11.4275476,19.0183792 11.4273847,19.0188677 C11.2545609,19.6084078 10.3735014,19.5939176 10.1946508,19.0188677 C10.1944879,19.0183792 10.194325,19.0178908 10.1941621,19.0174023 L8.60291244,13.7493135 C8.50013031,13.4087121 8.69282644,13.0493873 9.03358745,12.9464905 C9.37402266,12.8437565 9.73384156,13.0363624 9.83662365,13.3769639 L10.8110177,16.6027463 L11.7854118,13.3769639 C11.8883568,13.0363624 12.2478499,12.8435937 12.5886109,12.9464905 C12.929209,13.0493873 13.122068,13.4087121 13.019123,13.7493135 L13.019123,13.7493135 Z M16.9833203,15.2214543 C17.3392299,15.2214543 17.6277039,15.5097933 17.6277039,15.8655363 C17.6277039,16.2211164 17.3392299,16.5096182 16.9833203,16.5096182 L15.1547433,16.5096182 L15.1547433,18.187227 L17.3304339,18.187227 C17.6863435,18.187227 17.9748176,18.4755659 17.9748176,18.8313089 C17.9748176,19.1870518 17.6863435,19.4753908 17.3304339,19.4753908 L14.5103596,19.4753908 C14.1544501,19.4753908 13.865976,19.1870518 13.865976,18.8313089 L13.865976,13.5630573 C13.865976,13.2074772 14.1544501,12.9189754 14.5103596,12.9189754 L17.4172531,12.9189754 C17.7729997,12.9189754 18.0616367,13.2073144 18.0616367,13.5630573 C18.0616367,13.9188003 17.7729997,14.2071392 17.4172531,14.2071392 L15.1545804,14.2071392 L15.1545804,15.2214543 L16.9833203,15.2214543 Z" id="Shape"></path>
                </g>
            </g>
        </g>
    </g>
</svg>