<?xml version="1.0" encoding="UTF-8"?>
<svg width="82px" height="66px" viewBox="0 0 82 66" version="1.1" xmlns="http://www.w3.org/2000/svg" xmlns:xlink="http://www.w3.org/1999/xlink">
    <!-- Generator: Sketch 64 (93537) - https://sketch.com -->
    <title>Group 21</title>
    <desc>Created with Sketch.</desc>
    <g id="Styleguide" stroke="none" stroke-width="1" fill="none" fill-rule="evenodd">
        <g id="Software-Development_Mobile-App" transform="translate(-859.000000, -921.000000)">
            <g id="Group-21" transform="translate(859.000000, 921.000000)">
                <g id="customer-review-(1)" transform="translate(17.000000, 0.000000)" fill="#000000" fill-rule="nonzero">
                    <path d="M42.6767677,49.6212804 C42.2553658,49.5487888 41.8236618,49.512293 41.3934297,49.512293 L37.2853744,49.512293 L37.2853744,46.8416022 C39.6514062,45.2322885 41.2133895,42.4881062 41.2133895,39.3779663 L41.2133895,34.5740223 C41.2133895,32.919214 40.767459,31.3019012 39.9236741,29.8975638 L38.3155771,30.9009475 C38.97785,32.00332 39.328119,33.2736729 39.328119,34.5740223 L39.328119,35.5814057 L39.0803797,35.1149598 C38.3263696,33.6946242 36.8737841,32.8122263 35.2892344,32.8122263 L29.5382514,32.8122263 C27.9537019,32.8122263 26.5011164,33.6946242 25.7471061,35.1149598 L25.4998575,35.5814057 L25.4998575,34.5740223 C25.4998575,30.6884722 28.6012578,27.5278381 32.4139882,27.5278381 C34.253145,27.5278381 35.9843759,28.2557539 37.2883179,29.5771008 L38.6177698,28.2142586 C36.9581626,26.5324533 34.7550008,25.6060606 32.4139882,25.6060606 C27.5617343,25.6060606 23.6140965,29.6290948 23.6140965,34.5740223 L23.6140965,39.3779663 C23.6140965,42.4881062 25.1765703,45.2327884 27.5426021,46.8416022 L27.5426021,49.512293 L23.4345468,49.512293 C19.2013956,49.512293 15.7575758,53.0218867 15.7575758,57.3363872 L15.7575758,65 L17.6433369,65 L17.6433369,57.3363872 C17.6433369,54.081764 20.2409189,51.4340705 23.4345468,51.4340705 L27.6152067,51.4340705 C28.0106083,53.7693002 30.0111636,55.5520938 32.4139882,55.5520938 C34.8168129,55.5520938 36.8173682,53.7693002 37.2127698,51.4340705 L41.3934297,51.4340705 C41.7191699,51.4340705 42.0454007,51.4615673 42.3637823,51.516561 L42.6767677,49.6212804 Z M35.3996133,50.5876685 C35.3996133,52.2654743 34.06035,53.6303162 32.4139882,53.6303162 C30.7676265,53.6303162 29.4283632,52.2654743 29.4283632,50.5876685 L29.4283632,47.8134897 C30.3609418,48.1574499 31.3661251,48.3454281 32.4139882,48.3454281 C33.4618514,48.3454281 34.4670347,48.1574499 35.3996133,47.8134897 L35.3996133,50.5876685 Z M32.4139882,46.4241505 C28.6777871,46.4241505 25.6264253,43.388002 25.5057445,39.6104393 L27.4062228,36.0293539 C27.8300776,35.2304464 28.6473715,34.7340038 29.5382514,34.7340038 L35.2892344,34.7340038 C36.180605,34.7340038 36.9978989,35.2304464 37.4217537,36.0293539 L39.322232,39.6099394 C39.2010606,43.388002 36.1496989,46.4241505 32.4139882,46.4241505 Z" id="Shape"></path>
                    <path d="M44.8209506,50.5555556 L43.989899,52.2548153 C46.0169271,53.2150959 47.3260701,55.2656897 47.3260701,57.4782115 L47.3260701,65 L49.2424242,65 L49.2424242,57.4782115 C49.2424242,54.5453568 47.507037,51.8284056 44.8209506,50.5555556 L44.8209506,50.5555556 Z" id="Path"></path>
                    <polygon id="Path" points="41.3636364 60.4040404 43.3333333 60.4040404 43.3333333 65 41.3636364 65"></polygon>
                    <polygon id="Path" points="21.010101 60.4040404 22.979798 60.4040404 22.979798 65 21.010101 65"></polygon>
                    <path d="M16.6764024,9.13428477 L14.4444444,4.5959596 L12.2124865,9.13428477 L7.22222222,9.86219134 L10.8333334,13.3953604 L9.98103085,18.3838384 L14.4444444,16.0287283 L18.9078582,18.3838384 L18.0555556,13.3953604 L21.6666667,9.86219134 L16.6764024,9.13428477 Z M16.3439191,14.8420996 L14.4444444,13.839464 L12.5449699,14.8420996 L12.9075877,12.7188712 L11.370731,11.2151697 L13.4947071,10.9056583 L14.4444444,8.97398411 L15.3941818,10.9056583 L17.5181579,11.2151697 L15.9813012,12.7188712 L16.3439191,14.8420996 Z" id="Shape"></path>
                    <path d="M35.0602408,9.1346229 L32.8282828,4.5959596 L30.5968272,9.1346229 L25.6060606,9.86250286 L29.2171718,13.3955428 L28.3648691,18.3838384 L32.8282828,16.0288144 L37.2921988,18.3838384 L36.439394,13.3950388 L40.0505051,9.86250286 L35.0602408,9.1346229 Z M34.7282597,14.8422291 L32.8282828,13.8396301 L30.9288083,14.8422291 L31.2914261,12.7190782 L29.7545693,11.2154317 L31.8785456,10.9059316 L32.8282828,8.9743281 L33.7780201,10.9059316 L35.9019963,11.2154317 L34.3651396,12.7190782 L34.7282597,14.8422291 Z" id="Shape"></path>
                    <path d="M50.5555556,4.5959596 L48.3235976,9.1346229 L43.3333333,9.86250286 L46.9444444,13.3950388 L46.0921418,18.3838384 L50.5555556,16.0288144 L55.0194715,18.3838384 L54.1666666,13.3950388 L57.7777778,9.86250286 L52.7875135,9.1346229 L50.5555556,4.5959596 Z M52.4550301,14.8422291 L50.5555556,13.8396301 L48.6555787,14.8422291 L49.0186988,12.7190782 L47.4818421,11.2154317 L49.6058182,10.9059316 L50.5555556,8.9743281 L51.5052929,10.9059316 L53.629269,11.2154317 L52.0924123,12.7190782 L52.4550301,14.8422291 Z" id="Shape"></path>
                    <path d="M61.5019015,0 L49.7864736,0 L49.7864736,1.91528568 L61.5019015,1.91528568 C62.3785359,1.91528568 63.0918561,2.63127564 63.0918561,3.51119102 L63.0918561,20.1090049 C63.0918561,20.9894185 62.3785359,21.7054085 61.5019015,21.7054085 L18.1899132,21.7054085 L18.1899132,28.475176 L8.63430162,21.7054085 L3.49809846,21.7054085 C2.62146411,21.7054085 1.90814394,20.9894185 1.90814394,20.1090049 L1.90814394,11.7682447 L0,11.7682447 L0,20.1090049 C0,22.0452171 1.56910585,23.6201959 3.49809846,23.6201959 L8.02919572,23.6201959 L20.0980572,32.1717172 L20.0980572,23.6201959 L61.5019015,23.6201959 C63.4308942,23.6201959 65,22.0452171 65,20.1090049 L65,3.51119102 C65,1.57497864 63.4308942,0 61.5019015,0 Z" id="Path"></path>
                    <path d="M1.91015523,3.50959662 C1.91015523,2.63008079 2.62422727,1.91441596 3.50178564,1.91441596 L47.9292929,1.91441596 L47.9292929,0 L3.50178564,0 C1.57075977,0 0,1.57426346 0,3.50959662 L0,9.84848485 L1.91015523,9.84848485 L1.91015523,3.50959662 Z" id="Path"></path>
                    <path d="M19.6969697,57.1212121 L21.5988825,57.1212121 C21.5988825,55.9975794 22.5127309,55.0832363 23.6363636,55.0832363 L23.6363636,53.1818182 C21.4643038,53.1818182 19.6969697,54.9491524 19.6969697,57.1212121 Z" id="Path"></path>
                    <polygon id="Path" points="61.0606061 8.53535354 61.0606061 3.93939394 56.4646465 3.93939394 56.4646465 5.77749084 59.2220309 5.77749084 59.2220309 8.53535354"></polygon>
                    <polygon id="Path" points="3.93939394 15.1010101 3.93939394 19.6969697 8.53535354 19.6969697 8.53535354 17.8585859 5.77749084 17.8585859 5.77749084 15.1010101"></polygon>
                    <polygon id="Path" points="27.5757576 60.4040404 29.5454545 60.4040404 29.5454545 62.3737374 27.5757576 62.3737374"></polygon>
                    <polygon id="Path" points="31.5151515 60.4040404 33.4848485 60.4040404 33.4848485 62.3737374 31.5151515 62.3737374"></polygon>
                    <polygon id="Path" points="35.4545455 60.4040404 37.4242424 60.4040404 37.4242424 62.3737374 35.4545455 62.3737374"></polygon>
                </g>
                <path d="M39.6297856,31.0745988 C39.0860758,31.2980775 38.8738328,31.8894923 39.0741535,32.3805722 C39.2825466,32.8909713 39.8631411,33.1337692 40.3702144,32.9253718 C40.9139242,32.7018931 41.1261672,32.1104783 40.9258465,31.6193983 C40.717826,31.1099964 40.137604,30.8659521 39.6297856,31.0745988 Z" id="Path" fill="#000000" fill-rule="nonzero"></path>
                <circle id="Oval-Copy-5" fill="#36C2E1" opacity="0.200000003" cx="32.5" cy="33.5" r="32.5"></circle>
            </g>
        </g>
    </g>
</svg>