<?xml version="1.0" encoding="UTF-8"?>
<svg width="60px" height="60px" viewBox="0 0 60 60" version="1.1" xmlns="http://www.w3.org/2000/svg" xmlns:xlink="http://www.w3.org/1999/xlink">
    <!-- Generator: Sketch 64 (93537) - https://sketch.com -->
    <title>Group 6</title>
    <desc>Created with Sketch.</desc>
    <defs>
        <circle id="path-1" cx="20" cy="20" r="20"></circle>
        <filter x="-50.0%" y="-25.0%" width="200.0%" height="200.0%" filterUnits="objectBoundingBox" id="filter-2">
            <feOffset dx="0" dy="10" in="SourceAlpha" result="shadowOffsetOuter1"></feOffset>
            <feGaussianBlur stdDeviation="5" in="shadowOffsetOuter1" result="shadowBlurOuter1"></feGaussianBlur>
            <feColorMatrix values="0 0 0 0 1   0 0 0 0 1   0 0 0 0 1  0 0 0 0.143602491 0" type="matrix" in="shadowBlurOuter1"></feColorMatrix>
        </filter>
    </defs>
    <g id="Styleguide" stroke="none" stroke-width="1" fill="none" fill-rule="evenodd">
        <g id="Livestreaming" transform="translate(-646.000000, -2357.000000)">
            <g id="Group-6" transform="translate(656.000000, 2357.000000)">
                <g id="Oval">
                    <use fill="black" fill-opacity="1" filter="url(#filter-2)" xlink:href="#path-1"></use>
                    <use fill="#36C2E1" fill-rule="evenodd" xlink:href="#path-1"></use>
                </g>
                <g id="conversation" transform="translate(10.000000, 10.000000)" fill="#FFFFFF" fill-rule="nonzero">
                    <path d="M19.6346661,8.64864865 L15.4440446,8.64864865 C14.7307036,12.6183477 11.3102097,15.6365453 7.21040807,15.6365453 C6.7843726,15.6365453 6.36205829,15.6026954 5.94594595,15.5383452 L5.94594595,16.742322 C5.94594595,16.9478646 6.10952248,17.1144739 6.3112798,17.1144739 L14.7144235,17.1144739 C14.9491675,17.1144739 15.1660033,17.2420711 15.2833753,17.4491111 L16.2021947,19.0703205 C16.2920068,19.2288121 16.5165563,19.2288121 16.6063683,19.0703205 L17.5252266,17.4491111 C17.6425985,17.2420711 17.8594344,17.1144739 18.0941783,17.1144739 L19.6346661,17.1144739 C19.8364235,17.1144739 20,16.9478646 20,16.742322 L20,9.02080055 C20,8.81529736 19.8364235,8.64864865 19.6346661,8.64864865 Z" id="Path"></path>
                    <path d="M0.498930259,13.3684641 C0.472650066,13.5215447 0.614791291,13.6498512 0.764407422,13.608077 L2.69316904,13.0695272 C2.75210277,13.0530766 2.8124528,13.0449495 2.87244875,13.0449495 C3.00121383,13.0449495 3.12852327,13.0822479 3.23832569,13.1542535 C4.40476499,13.9197347 5.76157833,14.3243243 7.16217888,14.3243243 C11.117466,14.3243243 14.3341538,11.1015451 14.3243018,7.14398717 C14.3144437,3.21721023 11.1071192,0.00986079169 7.1803547,2.26576653e-05 C3.2228251,-0.00984847506 0,3.20692372 0,7.1622045 C0,8.33820384 0.291363941,9.50446633 0.842618537,10.5349233 C0.912567914,10.6656641 0.936920369,10.8160748 0.911859765,10.9622454 L0.498930259,13.3684641 Z M3.31331079,5.04436134 L10.995389,5.04436134 C11.3312483,5.04436134 11.6458631,5.31652197 11.6751726,5.65110837 C11.7097539,6.04643229 11.3991126,6.37799555 11.0110076,6.37799555 L3.32892941,6.37799555 C2.99307011,6.37799555 2.67845528,6.10583492 2.64914578,5.77124852 C2.61456451,5.3759246 2.92520584,5.04436134 3.31331079,5.04436134 Z M3.31331079,7.94641346 L10.995389,7.94641346 C11.3312483,7.94641346 11.6458631,8.21857409 11.6751726,8.55316048 C11.7097539,8.9484844 11.3991126,9.28004766 11.0110076,9.28004766 L3.32892941,9.28004766 C2.99307011,9.28004766 2.67845528,9.00788703 2.64914578,8.67330064 C2.61456451,8.27797672 2.92520584,7.94641346 3.31331079,7.94641346 Z" id="Shape"></path>
                </g>
            </g>
        </g>
    </g>
</svg>