<?xml version="1.0" encoding="UTF-8"?>
<svg width="60px" height="60px" viewBox="0 0 60 60" version="1.1" xmlns="http://www.w3.org/2000/svg" xmlns:xlink="http://www.w3.org/1999/xlink">
    <!-- Generator: Sketch 64 (93537) - https://sketch.com -->
    <title>Group 15</title>
    <desc>Created with Sketch.</desc>
    <g id="Styleguide" stroke="none" stroke-width="1" fill="none" fill-rule="evenodd">
        <g id="Blockchain" transform="translate(-139.000000, -2467.000000)">
            <g id="Group-15" transform="translate(139.000000, 2467.000000)">
                <circle id="Oval-Copy-10" fill="#FFC029" cx="30" cy="30" r="30"></circle>
                <path d="M40.8510638,35.0768303 C40.8510638,32.4676596 39.4873773,30.167234 37.4257869,28.8268031 C38.3735948,27.6793726 38.9431084,26.2174468 38.9431084,24.6265139 C38.9431084,21.3391053 36.5138681,18.6015767 33.3304885,18.0579105 L33.3304885,15.4337152 C33.3304885,14.6654228 32.697863,14.0425532 31.917537,14.0425532 C31.137211,14.0425532 30.5045856,14.6654228 30.5045856,15.4337152 L30.5045856,17.9579324 L27.8670762,17.9579324 L27.8670762,15.5264594 C27.8670762,14.7581669 27.2344507,14.1352973 26.4541248,14.1352973 C25.6737988,14.1352973 25.0411733,14.7581669 25.0411733,15.5264594 L25.0411733,17.9579324 L22.3094672,17.9579324 C21.2689697,17.9579324 20.4255319,18.7883633 20.4255319,19.8128151 C20.4255319,20.8372668 21.2689697,21.6676978 22.3094672,21.6676978 L24.1143714,21.6676978 L24.1143714,38.9181069 L22.3094672,38.9181069 C21.2689697,38.9181069 20.4255319,39.7485379 20.4255319,40.7729896 C20.4255319,41.7974414 21.2689697,42.6278723 22.3094672,42.6278723 L25.0411733,42.6278723 L25.0411733,45.2045827 C25.0411733,45.9728751 25.6737988,46.5957447 26.4541248,46.5957447 C27.2344507,46.5957447 27.8670762,45.9728751 27.8670762,45.2045827 L27.8670762,42.6279651 L30.5045856,42.6315821 L30.5045856,45.1118385 C30.5045856,45.8801309 31.137211,46.5030005 31.917537,46.5030005 C32.697863,46.5030005 33.3304885,45.8801309 33.3304885,45.1118385 L33.3304885,42.5606328 C37.4848483,42.5167649 40.8510638,39.1773268 40.8510638,35.0768303 Z M32.2199345,22.4133739 C33.9074804,22.4133739 35.2804642,23.6639225 35.2804642,25.2009824 C35.2804642,26.7380423 33.9074804,27.9885909 32.2199345,27.9885909 C31.7606104,27.9885909 27.8529981,27.993921 27.8529981,27.993921 L27.8529981,22.4133739 L32.2199345,22.4133739 Z M33.2673935,39.1383311 C32.2845824,39.1383311 29.6754757,39.1478128 27.8529981,39.1550152 L27.8529981,31.721944 C28.4978134,31.7193912 33.2673935,31.7142857 33.2673935,31.7142857 C35.401253,31.7142857 37.1373308,33.3795015 37.1373308,35.4262628 C37.1372357,37.4731153 35.401253,39.1383311 33.2673935,39.1383311 Z" id="Shape" fill="#FFFFFF" fill-rule="nonzero"></path>
            </g>
        </g>
    </g>
</svg>