<?xml version="1.0" encoding="UTF-8"?>
<svg width="60px" height="59px" viewBox="0 0 60 59" version="1.1" xmlns="http://www.w3.org/2000/svg" xmlns:xlink="http://www.w3.org/1999/xlink">
    <!-- Generator: Sketch 64 (93537) - https://sketch.com -->
    <title>Group 18</title>
    <desc>Created with Sketch.</desc>
    <g id="Styleguide" stroke="none" stroke-width="1" fill="none" fill-rule="evenodd">
        <g id="Blockchain" transform="translate(-639.000000, -2467.000000)">
            <g id="Group-18" transform="translate(639.000000, 2467.000000)">
                <ellipse id="Oval-Copy-9" fill="#59E6FF" cx="30" cy="29.5" rx="30" ry="29.5"></ellipse>
                <g id="Group" transform="translate(20.842105, 13.808511)" fill-rule="nonzero">
                    <path d="M8.88963887,25.9203556 L1.21690411,20.5750622 C1.13115373,20.5153097 1.02570642,20.6177815 1.08378947,20.7044044 L8.76742626,32.1624822 C8.95486778,32.4419342 9.36795373,32.4419342 9.55539526,32.1624822 L17.239032,20.7044044 C17.2971151,20.6177815 17.1916678,20.5153097 17.1059174,20.5750622 L9.43318265,25.9203556 C9.26992713,26.0339399 9.05280278,26.0339399 8.88963887,25.9203556 L8.88963887,25.9203556 Z" id="Path" fill="#B1ABB5"></path>
                    <path d="M18.2436673,15.8548923 L9.57555026,0.295300955 C9.3952546,-0.0282366737 8.92738369,-0.0282366737 8.74708803,0.295300955 L0.0789709659,15.8548923 L18.2436673,15.8548923 Z" id="Path" fill="#B1ABB5"></path>
                    <path d="M9.16136495,15.8548923 L18.2435757,15.8548923 L9.57555026,0.295300955 C9.48540243,0.133532141 9.32333788,0.0526477336 9.16136495,0.0526477336 L9.16136495,15.8548923 Z" id="Path" fill="#786E79"></path>
                    <path d="M8.88963887,22.5003479 L0.222712782,16.4624362 C-0.0463565067,16.2749811 -0.0463565067,15.8787568 0.222712782,15.6913018 L8.88963887,9.65339006 C9.05271116,9.53971467 9.26992713,9.53971467 9.43309104,9.65339006 L18.1000171,15.6913018 C18.3690864,15.8787568 18.3690864,16.2749811 18.1000171,16.4624362 L9.43309104,22.5003479 C9.26992713,22.6140233 9.05271116,22.6140233 8.88963887,22.5003479 Z" id="Path" fill="#786E79"></path>
                    <path d="M9.43309104,22.5003479 L18.1000171,16.4624362 C18.3690864,16.2749811 18.3690864,15.8787568 18.1000171,15.6913018 L9.43309104,9.65339006 C9.35155489,9.59655236 9.25645992,9.56813352 9.16136495,9.56813352 L9.16136495,22.5855136 C9.25645992,22.5855136 9.35155489,22.5571856 9.43309104,22.5003479 L9.43309104,22.5003479 Z" id="Path" fill="#554E57"></path>
                    <path d="M15.7156803,15.204629 C15.856124,15.4084796 15.8168217,15.701139 15.5974071,15.8548923 L18.2435757,15.8548923 L9.57564187,0.295300955 C9.48549404,0.133532141 9.3234295,0.0526477336 9.16145656,0.0526477336 L9.16145656,3.43931794 L15.7156803,15.204629 Z" id="Path" fill="#554E57"></path>
                    <path d="M9.55530364,32.1623911 L17.2389404,20.7043133 C17.2970235,20.6176905 17.1915762,20.5152187 17.1058258,20.5749711 L9.43309104,25.9202645 C9.35155489,25.9771022 9.25645992,26.0055211 9.16136495,26.0055211 L9.16136495,32.3719802 C9.31151972,32.3719802 9.46167449,32.3022082 9.55530364,32.1623911 L9.55530364,32.1623911 Z" id="Path" fill="#554E57"></path>
                    <path d="M18.1000171,15.6913928 L14.646549,13.2855372 L15.7156803,15.2047201 C15.8563988,15.408935 15.8168217,15.7024143 15.5963993,15.8558942 L9.16136495,20.3388761 L9.16136495,22.5856955 C9.25645992,22.5856955 9.35146327,22.5572767 9.43309104,22.500439 L18.1000171,16.4625273 C18.3690864,16.2750722 18.3690864,15.8788479 18.1000171,15.6913928 L18.1000171,15.6913928 Z" id="Path" fill="#453E43"></path>
                    <path d="M17.1058258,20.5749711 L13.0529296,23.3984563 L9.16136495,29.2017304 L9.16136495,32.3720712 C9.31151972,32.3720712 9.46158288,32.3022082 9.55530364,32.1624822 L17.2389404,20.7044044 C17.2971151,20.6176905 17.1915762,20.5152187 17.1058258,20.5749711 L17.1058258,20.5749711 Z" id="Path" fill="#453E43"></path>
                </g>
            </g>
        </g>
    </g>
</svg>