<?xml version="1.0" encoding="UTF-8"?>
<svg width="60px" height="59px" viewBox="0 0 60 59" version="1.1" xmlns="http://www.w3.org/2000/svg" xmlns:xlink="http://www.w3.org/1999/xlink">
    <!-- Generator: Sketch 64 (93537) - https://sketch.com -->
    <title>stratis-seeklogo.com</title>
    <desc>Created with Sketch.</desc>
    <defs>
        <ellipse id="path-1" cx="30" cy="29.5" rx="30" ry="29.5"></ellipse>
    </defs>
    <g id="Styleguide" stroke="none" stroke-width="1" fill="none" fill-rule="evenodd">
        <g id="Blockchain" transform="translate(-339.000000, -2468.000000)">
            <g id="stratis-seeklogo.com" transform="translate(339.000000, 2468.000000)">
                <mask id="mask-2" fill="white">
                    <use xlink:href="#path-1"></use>
                </mask>
                <use id="Mask" fill="#2DC5F4" xlink:href="#path-1"></use>
                <g mask="url(#mask-2)" fill="#FFFFFF" fill-rule="nonzero" id="Shape">
                    <g transform="translate(12.000000, 13.808511)">
                        <path d="M2.43264446,11.5224281 L18.1044703,21.1445879 C18.1147474,21.1515683 18.1284003,21.1515683 18.1386773,21.1445879 L34.1264255,11.3044724 C34.1336336,11.3002556 34.1387021,11.2932925 34.1404032,11.28527 C34.1421044,11.2772474 34.140283,11.2688973 34.1353803,11.2622424 C34.1333536,11.2585301 34.1302355,11.2554919 34.1264255,11.2535172 L18.2855347,1.41671728 C18.2752576,1.4097369 18.2616047,1.4097369 18.2513277,1.41671728 L2.43264446,11.4697279 C2.42547512,11.4749363 2.42083256,11.4827993 2.41960465,11.4914563 C2.41879789,11.5001133 2.42149617,11.5087952 2.42727163,11.5154479 C2.42861484,11.518072 2.43043523,11.520437 2.43264446,11.5224281 Z M18.1046494,32.4266318 C17.8965071,32.4266318 17.6927736,32.3681999 17.5181156,32.2578858 L0.734293212,21.7265593 C0.723456378,21.7144628 0.723456378,21.6964258 0.734293212,21.6843293 L1.44887947,20.6011819 C1.4612942,20.5906228 1.47980556,20.5906228 1.49222029,20.6011819 L18.0971275,31.0216983 C18.1074045,31.0286787 18.1210574,31.0286787 18.1313345,31.0216983 L33.8681716,21.169193 C34.2288124,20.9449001 34.4467026,20.5564958 34.4457507,20.1396184 L34.4457507,17.7140105 C34.4441557,17.6968564 34.4292175,17.6838252 34.4115437,17.6841703 C34.4065344,17.6844886 34.4016227,17.6856703 34.397037,17.6876603 L18.5031342,27.5506359 C18.1478927,27.7704735 17.6942628,27.7704735 17.3390213,27.5506359 L1.27766532,17.5943006 C0.482506373,17.1092258 3.27421492e-06,16.2593918 3.27421492e-06,15.3452909 L3.27421492e-06,11.9515339 C-0.000689422889,11.6772321 0.108553233,11.4135045 0.304466891,11.2165223 L0.358195181,11.1742923 L0.66677466,10.9685519 L17.7047318,0.149293515 L17.7226413,0.138823265 C18.0717727,-0.055326363 18.5025242,-0.0451828888 18.8416225,0.165173394 L35.3129253,10.3886745 C35.6271472,10.5828934 35.8175373,10.9202596 35.8175373,11.2828339 C35.8175373,11.6454082 35.6271472,11.9827744 35.3129253,12.1769932 L18.7008543,22.3970043 C18.347332,22.6115075 17.8993975,22.6115075 17.5458752,22.3970043 L1.43114914,12.5115177 C1.41617268,12.5030186 1.39697535,12.5076563 1.38780831,12.521988 C1.38491465,12.5267766 1.38366015,12.5323383 1.38422643,12.5378679 L1.38422643,15.3435459 C1.38248016,15.7940357 1.61823029,16.213849 2.00854916,16.4553119 L17.9060338,26.300837 C17.9163109,26.3078174 17.9299638,26.3078174 17.9402409,26.300837 L34.1552597,16.2214763 C34.5654894,15.9653702 35.1008409,16.0082439 35.4626481,16.3261788 C35.6935953,16.5404704 35.8202273,16.8402774 35.8109865,17.1508855 L35.8109865,20.1279266 C35.8137821,21.0056491 35.3563961,21.8239929 34.5981599,22.2978859 L18.6825867,32.2620739 C18.5091993,32.3673886 18.3093182,32.4239742 18.1050076,32.4255843 L18.1050076,32.4255843 L18.1046494,32.4266318 Z"></path>
                    </g>
                </g>
            </g>
        </g>
    </g>
</svg>